{
.appVersion = "1286";
copyright = "Copyright © 2020 by Florian Karsten. All rights reserved.";
customParameters = (
{
name = Axes;
value = (
{
Hidden = 1;
Name = Weight;
Tag = wght;
},
{
Name = Extravaganza;
Tag = extr;
}
);
}
);
date = "2020-05-18 19:13:15 +0000";
designer = "Florian Karsten";
designerURL = fonts.floriankarsten.com;
familyName = "FKxGF Schoolbook";
featurePrefixes = (
{
automatic = 1;
code = "languagesystem DFLT dflt;\012";
name = Languagesystems;
}
);
features = (
{
automatic = 1;
code = "feature salt;\012feature ss01;\012";
name = aalt;
},
{
automatic = 1;
code = "lookup ccmp_Other_1 {\012	@CombiningTopAccents = [dotaccentcomb];\012	sub [i j]' @CombiningTopAccents by [idotless jdotless];\012} ccmp_Other_1;\012";
name = ccmp;
},
{
automatic = 1;
code = "lookupflag IgnoreMarks;\012sub f f i by f_f_i.liga;\012sub f f l by f_f_l.liga;\012sub f f by f_f.liga;\012sub f i by f_i.liga;\012sub f l by f_l.liga;\012";
name = liga;
},
{
automatic = 1;
code = "sub i by i.ss01;\012sub idotless by idotless.ss01;\012sub l by l.ss01;\012";
name = salt;
},
{
automatic = 1;
code = "sub i by i.ss01;\012sub idotless by idotless.ss01;\012sub l by l.ss01;\012";
name = ss01;
}
);
fontMaster = (
{
alignmentZones = (
"{1520, 16}",
"{1440, 16}",
"{1100, 16}",
"{0, -16}",
"{-380, -16}"
);
ascender = 1520;
capHeight = 1440;
custom = "Sekeleton W100 E000";
descender = -396;
iconName = Light_Condensed;
id = "CA54B7DC-FBBB-40FE-ACF3-AABDD76D6A7B";
widthValue = 0;
xHeight = 1100;
},
{
alignmentZones = (
"{1480, 16}",
"{1440, 16}",
"{1080, 16}",
"{0, -16}",
"{-380, -16}"
);
ascender = 1480;
capHeight = 1440;
custom = "Sekeleton W100 E100";
descender = -396;
id = "1E61A082-F045-49A7-AB52-DD1B03FD9B54";
xHeight = 1080;
}
);
glyphs = (
{
glyphname = A;
lastChange = "2020-05-19 09:10:12 +0000";
layers = (
{
layerId = "CA54B7DC-FBBB-40FE-ACF3-AABDD76D6A7B";
paths = (
{
closed = 1;
nodes = (
"1126 530 LINE",
"390 530 LINE",
"390 490 LINE",
"1126 490 LINE"
);
},
{
closed = 1;
nodes = (
"172 40 LINE",
"220 40 LINE",
"764 1390 LINE",
"762 1440 LINE",
"736 1440 LINE"
);
},
{
closed = 1;
nodes = (
"750 1440 LINE",
"746 1398 LINE",
"1294 40 LINE",
"1344 40 LINE",
"780 1440 LINE"
);
},
{
closed = 1;
nodes = (
"12 0 LINE",
"500 0 LINE",
"500 40 LINE",
"12 40 LINE"
);
},
{
closed = 1;
nodes = (
"1014 0 LINE",
"1504 0 LINE",
"1504 40 LINE",
"1014 40 LINE"
);
}
);
width = 1516;
},
{
layerId = "1E61A082-F045-49A7-AB52-DD1B03FD9B54";
paths = (
{
closed = 1;
nodes = (
"1126 530 LINE",
"390 530 LINE",
"390 490 LINE",
"1126 490 LINE"
);
},
{
closed = 1;
nodes = (
"172 40 LINE",
"220 40 LINE",
"764 1390 LINE",
"762 1440 LINE",
"736 1440 LINE"
);
},
{
closed = 1;
nodes = (
"750 1440 LINE",
"746 1398 LINE",
"1294 40 LINE",
"1344 40 LINE",
"780 1440 LINE"
);
},
{
closed = 1;
nodes = (
"12 0 LINE",
"500 0 LINE",
"500 40 LINE",
"12 40 LINE"
);
},
{
closed = 1;
nodes = (
"1014 0 LINE",
"1504 0 LINE",
"1504 40 LINE",
"1014 40 LINE"
);
}
);
width = 1516;
}
);
leftKerningGroup = A;
rightKerningGroup = A;
unicode = 0041;
},
{
glyphname = B;
lastChange = "2020-05-19 09:10:12 +0000";
layers = (
{
layerId = "CA54B7DC-FBBB-40FE-ACF3-AABDD76D6A7B";
paths = (
{
closed = 1;
nodes = (
"348 1400 LINE",
"844 1400 LINE SMOOTH",
"1092 1400 OFFCURVE",
"1248 1290 OFFCURVE",
"1248 1076 CURVE SMOOTH",
"1248 862 OFFCURVE",
"1092 752 OFFCURVE",
"844 752 CURVE SMOOTH",
"348 752 LINE",
"348 720 LINE",
"856 720 LINE SMOOTH",
"1120 720 OFFCURVE",
"1296 842 OFFCURVE",
"1296 1076 CURVE SMOOTH",
"1296 1316 OFFCURVE",
"1120 1440 OFFCURVE",
"856 1440 CURVE SMOOTH",
"348 1440 LINE"
);
},
{
closed = 1;
nodes = (
"300 40 LINE",
"80 40 LINE",
"80 0 LINE",
"300 0 LINE"
);
},
{
closed = 1;
nodes = (
"348 1440 LINE",
"300 1440 LINE",
"300 0 LINE",
"348 0 LINE"
);
},
{
closed = 1;
nodes = (
"300 1440 LINE",
"92 1440 LINE",
"92 1400 LINE",
"300 1400 LINE"
);
},
{
closed = 1;
nodes = (
"348 712 LINE",
"868 712 LINE SMOOTH",
"1124 712 OFFCURVE",
"1284 598 OFFCURVE",
"1284 376 CURVE SMOOTH",
"1284 154 OFFCURVE",
"1124 40 OFFCURVE",
"868 40 CURVE SMOOTH",
"348 40 LINE",
"348 0 LINE",
"880 0 LINE SMOOTH",
"1152 0 OFFCURVE",
"1332 128 OFFCURVE",
"1332 376 CURVE SMOOTH",
"1332 618 OFFCURVE",
"1152 746 OFFCURVE",
"880 746 CURVE SMOOTH",
"348 746 LINE"
);
}
);
width = 1438;
},
{
layerId = "1E61A082-F045-49A7-AB52-DD1B03FD9B54";
paths = (
{
closed = 1;
nodes = (
"348 1400 LINE",
"844 1400 LINE SMOOTH",
"1092 1400 OFFCURVE",
"1248 1290 OFFCURVE",
"1248 1076 CURVE SMOOTH",
"1248 862 OFFCURVE",
"1092 752 OFFCURVE",
"844 752 CURVE SMOOTH",
"348 752 LINE",
"348 720 LINE",
"856 720 LINE SMOOTH",
"1120 720 OFFCURVE",
"1296 842 OFFCURVE",
"1296 1076 CURVE SMOOTH",
"1296 1316 OFFCURVE",
"1120 1440 OFFCURVE",
"856 1440 CURVE SMOOTH",
"348 1440 LINE"
);
},
{
closed = 1;
nodes = (
"300 40 LINE",
"80 40 LINE",
"80 0 LINE",
"300 0 LINE"
);
},
{
closed = 1;
nodes = (
"348 1440 LINE",
"300 1440 LINE",
"300 0 LINE",
"348 0 LINE"
);
},
{
closed = 1;
nodes = (
"300 1440 LINE",
"92 1440 LINE",
"92 1400 LINE",
"300 1400 LINE"
);
},
{
closed = 1;
nodes = (
"348 712 LINE",
"868 712 LINE SMOOTH",
"1124 712 OFFCURVE",
"1284 598 OFFCURVE",
"1284 376 CURVE SMOOTH",
"1284 154 OFFCURVE",
"1124 40 OFFCURVE",
"868 40 CURVE SMOOTH",
"348 40 LINE",
"348 0 LINE",
"880 0 LINE SMOOTH",
"1152 0 OFFCURVE",
"1332 128 OFFCURVE",
"1332 376 CURVE SMOOTH",
"1332 618 OFFCURVE",
"1152 746 OFFCURVE",
"880 746 CURVE SMOOTH",
"348 746 LINE"
);
}
);
width = 1438;
}
);
leftKerningGroup = I;
leftMetricsKey = I;
rightKerningGroup = B;
unicode = 0042;
},
{
glyphname = C;
lastChange = "2020-05-19 09:10:12 +0000";
layers = (
{
layerId = "CA54B7DC-FBBB-40FE-ACF3-AABDD76D6A7B";
paths = (
{
closed = 1;
nodes = (
"1402 930 LINE",
"1390 1244 OFFCURVE",
"1182 1460 OFFCURVE",
"824 1460 CURVE SMOOTH",
"446 1460 OFFCURVE",
"156 1188 OFFCURVE",
"156 720 CURVE SMOOTH",
"156 252 OFFCURVE",
"446 -20 OFFCURVE",
"824 -20 CURVE SMOOTH",
"1214 -20 OFFCURVE",
"1420 246 OFFCURVE",
"1428 546 CURVE",
"1384 548 LINE",
"1372 266 OFFCURVE",
"1184 24 OFFCURVE",
"824 24 CURVE SMOOTH",
"472 24 OFFCURVE",
"204 296 OFFCURVE",
"204 720 CURVE SMOOTH",
"204 1144 OFFCURVE",
"472 1416 OFFCURVE",
"824 1416 CURVE SMOOTH",
"1182 1416 OFFCURVE",
"1344 1182 OFFCURVE",
"1364 930 CURVE"
);
},
{
closed = 1;
nodes = (
"1376 1440 LINE",
"1376 984 LINE",
"1402 930 LINE",
"1420 930 LINE",
"1420 1440 LINE"
);
}
);
width = 1584;
},
{
layerId = "1E61A082-F045-49A7-AB52-DD1B03FD9B54";
paths = (
{
closed = 1;
nodes = (
"1402 930 LINE",
"1390 1244 OFFCURVE",
"1182 1460 OFFCURVE",
"824 1460 CURVE SMOOTH",
"446 1460 OFFCURVE",
"156 1188 OFFCURVE",
"156 720 CURVE SMOOTH",
"156 252 OFFCURVE",
"446 -20 OFFCURVE",
"824 -20 CURVE SMOOTH",
"1214 -20 OFFCURVE",
"1420 246 OFFCURVE",
"1428 546 CURVE",
"1384 548 LINE",
"1372 266 OFFCURVE",
"1184 24 OFFCURVE",
"824 24 CURVE SMOOTH",
"472 24 OFFCURVE",
"204 296 OFFCURVE",
"204 720 CURVE SMOOTH",
"204 1144 OFFCURVE",
"472 1416 OFFCURVE",
"824 1416 CURVE SMOOTH",
"1182 1416 OFFCURVE",
"1344 1182 OFFCURVE",
"1364 930 CURVE"
);
},
{
closed = 1;
nodes = (
"1376 1440 LINE",
"1376 984 LINE",
"1402 930 LINE",
"1420 930 LINE",
"1420 1440 LINE"
);
}
);
width = 1584;
}
);
leftKerningGroup = O;
leftMetricsKey = O;
rightKerningGroup = C;
unicode = 0043;
},
{
glyphname = D;
lastChange = "2020-05-19 09:10:12 +0000";
layers = (
{
layerId = "CA54B7DC-FBBB-40FE-ACF3-AABDD76D6A7B";
paths = (
{
closed = 1;
nodes = (
"348 1400 LINE",
"636 1400 LINE SMOOTH",
"1064 1400 OFFCURVE",
"1344 1136 OFFCURVE",
"1344 720 CURVE SMOOTH",
"1344 304 OFFCURVE",
"1064 40 OFFCURVE",
"636 40 CURVE SMOOTH",
"348 40 LINE",
"348 0 LINE",
"636 0 LINE SMOOTH",
"1092 0 OFFCURVE",
"1392 264 OFFCURVE",
"1392 720 CURVE SMOOTH",
"1392 1176 OFFCURVE",
"1092 1440 OFFCURVE",
"636 1440 CURVE SMOOTH",
"348 1440 LINE"
);
},
{
closed = 1;
nodes = (
"300 40 LINE",
"80 40 LINE",
"80 0 LINE",
"300 0 LINE"
);
},
{
closed = 1;
nodes = (
"348 1440 LINE",
"300 1440 LINE",
"300 0 LINE",
"348 0 LINE"
);
},
{
closed = 1;
nodes = (
"300 1440 LINE",
"92 1440 LINE",
"92 1400 LINE",
"300 1400 LINE"
);
}
);
width = 1548;
},
{
layerId = "1E61A082-F045-49A7-AB52-DD1B03FD9B54";
paths = (
{
closed = 1;
nodes = (
"348 1400 LINE",
"636 1400 LINE SMOOTH",
"1064 1400 OFFCURVE",
"1344 1136 OFFCURVE",
"1344 720 CURVE SMOOTH",
"1344 304 OFFCURVE",
"1064 40 OFFCURVE",
"636 40 CURVE SMOOTH",
"348 40 LINE",
"348 0 LINE",
"636 0 LINE SMOOTH",
"1092 0 OFFCURVE",
"1392 264 OFFCURVE",
"1392 720 CURVE SMOOTH",
"1392 1176 OFFCURVE",
"1092 1440 OFFCURVE",
"636 1440 CURVE SMOOTH",
"348 1440 LINE"
);
},
{
closed = 1;
nodes = (
"300 40 LINE",
"80 40 LINE",
"80 0 LINE",
"300 0 LINE"
);
},
{
closed = 1;
nodes = (
"348 1440 LINE",
"300 1440 LINE",
"300 0 LINE",
"348 0 LINE"
);
},
{
closed = 1;
nodes = (
"300 1440 LINE",
"92 1440 LINE",
"92 1400 LINE",
"300 1400 LINE"
);
}
);
width = 1548;
}
);
leftKerningGroup = I;
leftMetricsKey = I;
rightKerningGroup = O;
rightMetricsKey = O;
unicode = 0044;
},
{
glyphname = E;
lastChange = "2020-05-19 09:28:38 +0000";
layers = (
{
layerId = "CA54B7DC-FBBB-40FE-ACF3-AABDD76D6A7B";
paths = (
{
closed = 1;
nodes = (
"1264 40 LINE",
"80 40 LINE",
"80 0 LINE",
"1264 0 LINE"
);
},
{
closed = 1;
nodes = (
"348 1440 LINE",
"300 1440 LINE",
"300 0 LINE",
"348 0 LINE"
);
},
{
closed = 1;
nodes = (
"1244 1440 LINE",
"92 1440 LINE",
"92 1400 LINE",
"1244 1400 LINE"
);
},
{
closed = 1;
nodes = (
"1264 40 LINE",
"1264 520 LINE",
"1224 520 LINE",
"1224 180 LINE SMOOTH",
"1224 68 OFFCURVE",
"1216 40 OFFCURVE",
"1104 40 CURVE"
);
},
{
closed = 1;
nodes = (
"1196 1400 OFFCURVE",
"1204 1372 OFFCURVE",
"1204 1260 CURVE SMOOTH",
"1204 940 LINE",
"1244 940 LINE",
"1244 1400 LINE",
"1084 1400 LINE"
);
},
{
closed = 1;
nodes = (
"928 778 LINE",
"348 778 LINE",
"348 738 LINE",
"928 738 LINE"
);
},
{
closed = 1;
nodes = (
"880 738 OFFCURVE",
"888 710 OFFCURVE",
"888 598 CURVE SMOOTH",
"888 310 LINE",
"928 310 LINE",
"928 738 LINE",
"768 738 LINE"
);
},
{
closed = 1;
nodes = (
"928 778 LINE",
"928 1140 LINE",
"888 1140 LINE",
"888 918 LINE SMOOTH",
"888 806 OFFCURVE",
"880 778 OFFCURVE",
"768 778 CURVE"
);
}
);
width = 1404;
},
{
layerId = "1E61A082-F045-49A7-AB52-DD1B03FD9B54";
paths = (
{
closed = 1;
nodes = (
"1264 40 LINE",
"80 40 LINE",
"80 0 LINE",
"1264 0 LINE"
);
},
{
closed = 1;
nodes = (
"348 1440 LINE",
"300 1440 LINE",
"300 0 LINE",
"348 0 LINE"
);
},
{
closed = 1;
nodes = (
"1244 1440 LINE",
"92 1440 LINE",
"92 1400 LINE",
"1244 1400 LINE"
);
},
{
closed = 1;
nodes = (
"1264 40 LINE",
"1264 540 LINE",
"1224 540 LINE",
"1224 180 LINE SMOOTH",
"1224 68 OFFCURVE",
"1216 40 OFFCURVE",
"1104 40 CURVE"
);
},
{
closed = 1;
nodes = (
"1196 1400 OFFCURVE",
"1204 1372 OFFCURVE",
"1204 1260 CURVE SMOOTH",
"1204 920 LINE",
"1244 920 LINE",
"1244 1400 LINE",
"1084 1400 LINE"
);
},
{
closed = 1;
nodes = (
"928 780 LINE",
"348 780 LINE",
"348 740 LINE",
"928 740 LINE"
);
},
{
closed = 1;
nodes = (
"880 740 OFFCURVE",
"888 712 OFFCURVE",
"888 600 CURVE SMOOTH",
"888 310 LINE",
"928 310 LINE",
"928 740 LINE",
"768 740 LINE"
);
},
{
closed = 1;
nodes = (
"928 780 LINE",
"928 1140 LINE",
"888 1140 LINE",
"888 920 LINE SMOOTH",
"888 808 OFFCURVE",
"880 780 OFFCURVE",
"768 780 CURVE"
);
}
);
width = 1404;
}
);
leftKerningGroup = I;
leftMetricsKey = I;
rightKerningGroup = E;
unicode = 0045;
},
{
glyphname = F;
lastChange = "2020-05-19 09:30:01 +0000";
layers = (
{
layerId = "CA54B7DC-FBBB-40FE-ACF3-AABDD76D6A7B";
paths = (
{
closed = 1;
nodes = (
"708 40 LINE",
"80 40 LINE",
"80 0 LINE",
"708 0 LINE"
);
},
{
closed = 1;
nodes = (
"348 1440 LINE",
"300 1440 LINE",
"300 0 LINE",
"348 0 LINE"
);
},
{
closed = 1;
nodes = (
"1204 1440 LINE",
"92 1440 LINE",
"92 1400 LINE",
"1204 1400 LINE"
);
},
{
closed = 1;
nodes = (
"1156 1400 OFFCURVE",
"1164 1372 OFFCURVE",
"1164 1260 CURVE SMOOTH",
"1164 960 LINE",
"1204 960 LINE",
"1204 1400 LINE",
"1044 1400 LINE"
);
},
{
closed = 1;
nodes = (
"908 764 LINE",
"348 764 LINE",
"348 724 LINE",
"908 724 LINE"
);
},
{
closed = 1;
nodes = (
"860 724 OFFCURVE",
"868 696 OFFCURVE",
"868 584 CURVE SMOOTH",
"868 340 LINE",
"908 340 LINE",
"908 724 LINE",
"748 724 LINE"
);
},
{
closed = 1;
nodes = (
"908 764 LINE",
"908 1100 LINE",
"868 1100 LINE",
"868 904 LINE SMOOTH",
"868 792 OFFCURVE",
"860 764 OFFCURVE",
"748 764 CURVE"
);
}
);
width = 1254;
},
{
layerId = "1E61A082-F045-49A7-AB52-DD1B03FD9B54";
paths = (
{
closed = 1;
nodes = (
"748 40 LINE",
"80 40 LINE",
"80 0 LINE",
"748 0 LINE"
);
},
{
closed = 1;
nodes = (
"348 1440 LINE",
"300 1440 LINE",
"300 0 LINE",
"348 0 LINE"
);
},
{
closed = 1;
nodes = (
"1204 1440 LINE",
"92 1440 LINE",
"92 1400 LINE",
"1204 1400 LINE"
);
},
{
closed = 1;
nodes = (
"1156 1400 OFFCURVE",
"1164 1372 OFFCURVE",
"1164 1260 CURVE SMOOTH",
"1164 920 LINE",
"1204 920 LINE",
"1204 1400 LINE",
"1044 1400 LINE"
);
},
{
closed = 1;
nodes = (
"908 760 LINE",
"348 760 LINE",
"348 720 LINE",
"908 720 LINE"
);
},
{
closed = 1;
nodes = (
"860 720 OFFCURVE",
"868 692 OFFCURVE",
"868 580 CURVE SMOOTH",
"868 320 LINE",
"908 320 LINE",
"908 720 LINE",
"748 720 LINE"
);
},
{
closed = 1;
nodes = (
"908 760 LINE",
"908 1140 LINE",
"868 1140 LINE",
"868 900 LINE SMOOTH",
"868 788 OFFCURVE",
"860 760 OFFCURVE",
"748 760 CURVE"
);
}
);
width = 1254;
}
);
leftKerningGroup = I;
leftMetricsKey = I;
rightKerningGroup = F;
unicode = 0046;
},
{
glyphname = G;
lastChange = "2020-05-19 09:10:12 +0000";
layers = (
{
layerId = "CA54B7DC-FBBB-40FE-ACF3-AABDD76D6A7B";
paths = (
{
closed = 1;
nodes = (
"1370 960 LINE",
"1352 1270 OFFCURVE",
"1164 1460 OFFCURVE",
"828 1460 CURVE SMOOTH",
"446 1460 OFFCURVE",
"156 1188 OFFCURVE",
"156 720 CURVE SMOOTH",
"156 252 OFFCURVE",
"450 -20 OFFCURVE",
"840 -20 CURVE SMOOTH",
"1230 -20 OFFCURVE",
"1420 258 OFFCURVE",
"1420 632 CURVE",
"1380 632 LINE",
"1380 302 OFFCURVE",
"1204 24 OFFCURVE",
"840 24 CURVE SMOOTH",
"476 24 OFFCURVE",
"204 296 OFFCURVE",
"204 720 CURVE SMOOTH",
"204 1144 OFFCURVE",
"474 1416 OFFCURVE",
"828 1416 CURVE SMOOTH",
"1162 1416 OFFCURVE",
"1312 1214 OFFCURVE",
"1332 960 CURVE"
);
},
{
closed = 1;
nodes = (
"1344 1440 LINE",
"1344 1014 LINE",
"1370 960 LINE",
"1388 960 LINE",
"1388 1440 LINE"
);
},
{
closed = 1;
nodes = (
"816 632 LINE",
"1624 632 LINE",
"1624 672 LINE",
"816 672 LINE"
);
},
{
closed = 1;
nodes = (
"1380 632 LINE",
"1380 0 LINE",
"1424 0 LINE",
"1424 632 LINE"
);
}
);
width = 1668;
},
{
layerId = "1E61A082-F045-49A7-AB52-DD1B03FD9B54";
paths = (
{
closed = 1;
nodes = (
"1370 960 LINE",
"1352 1270 OFFCURVE",
"1164 1460 OFFCURVE",
"828 1460 CURVE SMOOTH",
"446 1460 OFFCURVE",
"156 1188 OFFCURVE",
"156 720 CURVE SMOOTH",
"156 252 OFFCURVE",
"450 -20 OFFCURVE",
"840 -20 CURVE SMOOTH",
"1230 -20 OFFCURVE",
"1420 258 OFFCURVE",
"1420 632 CURVE",
"1380 632 LINE",
"1380 302 OFFCURVE",
"1204 24 OFFCURVE",
"840 24 CURVE SMOOTH",
"476 24 OFFCURVE",
"204 296 OFFCURVE",
"204 720 CURVE SMOOTH",
"204 1144 OFFCURVE",
"474 1416 OFFCURVE",
"828 1416 CURVE SMOOTH",
"1162 1416 OFFCURVE",
"1312 1214 OFFCURVE",
"1332 960 CURVE"
);
},
{
closed = 1;
nodes = (
"1344 1440 LINE",
"1344 1014 LINE",
"1370 960 LINE",
"1388 960 LINE",
"1388 1440 LINE"
);
},
{
closed = 1;
nodes = (
"816 632 LINE",
"1624 632 LINE",
"1624 672 LINE",
"816 672 LINE"
);
},
{
closed = 1;
nodes = (
"1380 632 LINE",
"1380 0 LINE",
"1424 0 LINE",
"1424 632 LINE"
);
}
);
width = 1668;
}
);
leftKerningGroup = O;
leftMetricsKey = O;
rightKerningGroup = G;
unicode = 0047;
},
{
glyphname = H;
lastChange = "2020-05-19 09:10:12 +0000";
layers = (
{
layerId = "CA54B7DC-FBBB-40FE-ACF3-AABDD76D6A7B";
paths = (
{
closed = 1;
nodes = (
"588 40 LINE",
"80 40 LINE",
"80 0 LINE",
"588 0 LINE"
);
},
{
closed = 1;
nodes = (
"348 1440 LINE",
"300 1440 LINE",
"300 0 LINE",
"348 0 LINE"
);
},
{
closed = 1;
nodes = (
"576 1440 LINE",
"92 1440 LINE",
"92 1400 LINE",
"576 1400 LINE"
);
},
{
closed = 1;
nodes = (
"1520 40 LINE",
"1012 40 LINE",
"1012 0 LINE",
"1520 0 LINE"
);
},
{
closed = 1;
nodes = (
"1300 1440 LINE",
"1252 1440 LINE",
"1252 0 LINE",
"1300 0 LINE"
);
},
{
closed = 1;
nodes = (
"1508 1440 LINE",
"1024 1440 LINE",
"1024 1400 LINE",
"1508 1400 LINE"
);
},
{
closed = 1;
nodes = (
"1252 750 LINE",
"348 750 LINE",
"348 710 LINE",
"1252 710 LINE"
);
}
);
width = 1600;
},
{
layerId = "1E61A082-F045-49A7-AB52-DD1B03FD9B54";
paths = (
{
closed = 1;
nodes = (
"588 40 LINE",
"80 40 LINE",
"80 0 LINE",
"588 0 LINE"
);
},
{
closed = 1;
nodes = (
"348 1440 LINE",
"300 1440 LINE",
"300 0 LINE",
"348 0 LINE"
);
},
{
closed = 1;
nodes = (
"576 1440 LINE",
"92 1440 LINE",
"92 1400 LINE",
"576 1400 LINE"
);
},
{
closed = 1;
nodes = (
"1520 40 LINE",
"1012 40 LINE",
"1012 0 LINE",
"1520 0 LINE"
);
},
{
closed = 1;
nodes = (
"1300 1440 LINE",
"1252 1440 LINE",
"1252 0 LINE",
"1300 0 LINE"
);
},
{
closed = 1;
nodes = (
"1508 1440 LINE",
"1024 1440 LINE",
"1024 1400 LINE",
"1508 1400 LINE"
);
},
{
closed = 1;
nodes = (
"1252 750 LINE",
"348 750 LINE",
"348 710 LINE",
"1252 710 LINE"
);
}
);
width = 1600;
}
);
leftKerningGroup = I;
leftMetricsKey = I;
rightKerningGroup = I;
rightMetricsKey = I;
unicode = 0048;
},
{
glyphname = I;
lastChange = "2020-05-19 09:10:12 +0000";
layers = (
{
layerId = "CA54B7DC-FBBB-40FE-ACF3-AABDD76D6A7B";
paths = (
{
closed = 1;
nodes = (
"568 40 LINE",
"80 40 LINE",
"80 0 LINE",
"568 0 LINE"
);
},
{
closed = 1;
nodes = (
"348 1440 LINE",
"300 1440 LINE",
"300 0 LINE",
"348 0 LINE"
);
},
{
closed = 1;
nodes = (
"556 1440 LINE",
"92 1440 LINE",
"92 1400 LINE",
"556 1400 LINE"
);
}
);
width = 648;
},
{
layerId = "1E61A082-F045-49A7-AB52-DD1B03FD9B54";
paths = (
{
closed = 1;
nodes = (
"568 40 LINE",
"80 40 LINE",
"80 0 LINE",
"568 0 LINE"
);
},
{
closed = 1;
nodes = (
"348 1440 LINE",
"300 1440 LINE",
"300 0 LINE",
"348 0 LINE"
);
},
{
closed = 1;
nodes = (
"556 1440 LINE",
"92 1440 LINE",
"92 1400 LINE",
"556 1400 LINE"
);
}
);
width = 648;
}
);
leftKerningGroup = I;
rightKerningGroup = I;
unicode = 0049;
},
{
glyphname = J;
lastChange = "2020-05-19 09:10:12 +0000";
layers = (
{
layerId = "CA54B7DC-FBBB-40FE-ACF3-AABDD76D6A7B";
paths = (
{
closed = 1;
nodes = (
"780 1440 LINE",
"780 392 LINE SMOOTH",
"780 146 OFFCURVE",
"652 20 OFFCURVE",
"448 20 CURVE SMOOTH",
"244 20 OFFCURVE",
"116 146 OFFCURVE",
"116 392 CURVE SMOOTH",
"116 500 LINE",
"76 500 LINE",
"76 388 LINE SMOOTH",
"76 110 OFFCURVE",
"224 -20 OFFCURVE",
"452 -20 CURVE SMOOTH",
"680 -20 OFFCURVE",
"828 110 OFFCURVE",
"828 396 CURVE SMOOTH",
"828 1440 LINE"
);
},
{
closed = 1;
nodes = (
"512 1400 LINE",
"1036 1400 LINE",
"1036 1440 LINE",
"512 1440 LINE"
);
}
);
width = 1080;
},
{
layerId = "1E61A082-F045-49A7-AB52-DD1B03FD9B54";
paths = (
{
closed = 1;
nodes = (
"780 1440 LINE",
"780 392 LINE SMOOTH",
"780 146 OFFCURVE",
"652 20 OFFCURVE",
"448 20 CURVE SMOOTH",
"244 20 OFFCURVE",
"116 146 OFFCURVE",
"116 392 CURVE SMOOTH",
"116 500 LINE",
"76 500 LINE",
"76 388 LINE SMOOTH",
"76 110 OFFCURVE",
"224 -20 OFFCURVE",
"452 -20 CURVE SMOOTH",
"680 -20 OFFCURVE",
"828 110 OFFCURVE",
"828 396 CURVE SMOOTH",
"828 1440 LINE"
);
},
{
closed = 1;
nodes = (
"512 1400 LINE",
"1036 1400 LINE",
"1036 1440 LINE",
"512 1440 LINE"
);
}
);
width = 1080;
}
);
leftKerningGroup = J;
rightKerningGroup = U;
rightMetricsKey = U;
unicode = 004A;
},
{
glyphname = K;
lastChange = "2020-05-19 09:10:12 +0000";
layers = (
{
layerId = "CA54B7DC-FBBB-40FE-ACF3-AABDD76D6A7B";
paths = (
{
closed = 1;
nodes = (
"534 780 LINE",
"1254 34 LINE",
"1320 34 LINE",
"568 812 LINE"
);
},
{
closed = 1;
nodes = (
"1432 1440 LINE",
"944 1440 LINE",
"944 1400 LINE",
"1432 1400 LINE"
);
},
{
closed = 1;
nodes = (
"1480 34 LINE",
"994 34 LINE",
"994 -6 LINE",
"1480 -6 LINE"
);
},
{
closed = 1;
nodes = (
"328 562 LINE",
"1272 1400 LINE",
"1204 1400 LINE",
"314 610 LINE"
);
},
{
closed = 1;
nodes = (
"568 40 LINE",
"80 40 LINE",
"80 0 LINE",
"568 0 LINE"
);
},
{
closed = 1;
nodes = (
"348 1440 LINE",
"300 1440 LINE",
"300 0 LINE",
"348 0 LINE"
);
},
{
closed = 1;
nodes = (
"556 1440 LINE",
"92 1440 LINE",
"92 1400 LINE",
"556 1400 LINE"
);
}
);
width = 1512;
},
{
layerId = "1E61A082-F045-49A7-AB52-DD1B03FD9B54";
paths = (
{
closed = 1;
nodes = (
"534 780 LINE",
"1254 34 LINE",
"1320 34 LINE",
"568 812 LINE"
);
},
{
closed = 1;
nodes = (
"1432 1440 LINE",
"944 1440 LINE",
"944 1400 LINE",
"1432 1400 LINE"
);
},
{
closed = 1;
nodes = (
"1480 34 LINE",
"994 34 LINE",
"994 -6 LINE",
"1480 -6 LINE"
);
},
{
closed = 1;
nodes = (
"328 562 LINE",
"1272 1400 LINE",
"1204 1400 LINE",
"314 610 LINE"
);
},
{
closed = 1;
nodes = (
"568 40 LINE",
"80 40 LINE",
"80 0 LINE",
"568 0 LINE"
);
},
{
closed = 1;
nodes = (
"348 1440 LINE",
"300 1440 LINE",
"300 0 LINE",
"348 0 LINE"
);
},
{
closed = 1;
nodes = (
"556 1440 LINE",
"92 1440 LINE",
"92 1400 LINE",
"556 1400 LINE"
);
}
);
width = 1512;
}
);
leftKerningGroup = I;
leftMetricsKey = I;
rightKerningGroup = K;
unicode = 004B;
},
{
glyphname = L;
lastChange = "2020-05-19 09:29:35 +0000";
layers = (
{
layerId = "CA54B7DC-FBBB-40FE-ACF3-AABDD76D6A7B";
paths = (
{
closed = 1;
nodes = (
"1216 40 LINE",
"80 40 LINE",
"80 0 LINE",
"1216 0 LINE"
);
},
{
closed = 1;
nodes = (
"348 1440 LINE",
"300 1440 LINE",
"300 0 LINE",
"348 0 LINE"
);
},
{
closed = 1;
nodes = (
"668 1440 LINE",
"92 1440 LINE",
"92 1400 LINE",
"668 1400 LINE"
);
},
{
closed = 1;
nodes = (
"1216 40 LINE",
"1216 500 LINE",
"1176 500 LINE",
"1176 180 LINE SMOOTH",
"1176 68 OFFCURVE",
"1168 40 OFFCURVE",
"1056 40 CURVE"
);
}
);
width = 1272;
},
{
layerId = "1E61A082-F045-49A7-AB52-DD1B03FD9B54";
paths = (
{
closed = 1;
nodes = (
"1216 40 LINE",
"80 40 LINE",
"80 0 LINE",
"1216 0 LINE"
);
},
{
closed = 1;
nodes = (
"348 1440 LINE",
"300 1440 LINE",
"300 0 LINE",
"348 0 LINE"
);
},
{
closed = 1;
nodes = (
"748 1440 LINE",
"92 1440 LINE",
"92 1400 LINE",
"748 1400 LINE"
);
},
{
closed = 1;
nodes = (
"1216 40 LINE",
"1216 540 LINE",
"1176 540 LINE",
"1176 180 LINE SMOOTH",
"1176 68 OFFCURVE",
"1168 40 OFFCURVE",
"1056 40 CURVE"
);
}
);
width = 1272;
}
);
leftKerningGroup = I;
leftMetricsKey = I;
rightKerningGroup = L;
unicode = 004C;
},
{
glyphname = M;
lastChange = "2020-05-19 09:10:12 +0000";
layers = (
{
layerId = "CA54B7DC-FBBB-40FE-ACF3-AABDD76D6A7B";
paths = (
{
closed = 1;
nodes = (
"568 40 LINE",
"80 40 LINE",
"80 0 LINE",
"568 0 LINE"
);
},
{
closed = 1;
nodes = (
"348 1358 LINE",
"348 1440 LINE",
"300 1440 LINE",
"300 0 LINE",
"348 0 LINE"
);
},
{
closed = 1;
nodes = (
"300 1440 LINE",
"92 1440 LINE",
"92 1400 LINE",
"300 1400 LINE"
);
},
{
closed = 1;
nodes = (
"1548 1358 LINE",
"1548 1440 LINE",
"1534 1440 LINE",
"942 52 LINE",
"942 0 LINE",
"968 0 LINE"
);
},
{
closed = 1;
nodes = (
"1816 40 LINE",
"1328 40 LINE",
"1328 0 LINE",
"1816 0 LINE"
);
},
{
closed = 1;
nodes = (
"1596 1440 LINE",
"1548 1440 LINE",
"1548 0 LINE",
"1596 0 LINE"
);
},
{
closed = 1;
nodes = (
"1804 1440 LINE",
"1596 1440 LINE",
"1596 1400 LINE",
"1804 1400 LINE"
);
},
{
closed = 1;
nodes = (
"954 0 LINE",
"956 52 LINE",
"364 1440 LINE",
"348 1440 LINE",
"348 1358 LINE",
"928 0 LINE"
);
}
);
width = 1896;
},
{
layerId = "1E61A082-F045-49A7-AB52-DD1B03FD9B54";
paths = (
{
closed = 1;
nodes = (
"568 40 LINE",
"80 40 LINE",
"80 0 LINE",
"568 0 LINE"
);
},
{
closed = 1;
nodes = (
"348 1358 LINE",
"348 1440 LINE",
"300 1440 LINE",
"300 0 LINE",
"348 0 LINE"
);
},
{
closed = 1;
nodes = (
"300 1440 LINE",
"92 1440 LINE",
"92 1400 LINE",
"300 1400 LINE"
);
},
{
closed = 1;
nodes = (
"1548 1358 LINE",
"1548 1440 LINE",
"1534 1440 LINE",
"942 52 LINE",
"942 0 LINE",
"968 0 LINE"
);
},
{
closed = 1;
nodes = (
"1816 40 LINE",
"1328 40 LINE",
"1328 0 LINE",
"1816 0 LINE"
);
},
{
closed = 1;
nodes = (
"1596 1440 LINE",
"1548 1440 LINE",
"1548 0 LINE",
"1596 0 LINE"
);
},
{
closed = 1;
nodes = (
"1804 1440 LINE",
"1596 1440 LINE",
"1596 1400 LINE",
"1804 1400 LINE"
);
},
{
closed = 1;
nodes = (
"954 0 LINE",
"956 52 LINE",
"364 1440 LINE",
"348 1440 LINE",
"348 1358 LINE",
"928 0 LINE"
);
}
);
width = 1896;
}
);
leftKerningGroup = I;
leftMetricsKey = I;
rightKerningGroup = I;
rightMetricsKey = I;
unicode = 004D;
},
{
glyphname = N;
lastChange = "2020-05-19 09:10:12 +0000";
layers = (
{
layerId = "CA54B7DC-FBBB-40FE-ACF3-AABDD76D6A7B";
paths = (
{
closed = 1;
nodes = (
"568 40 LINE",
"80 40 LINE",
"80 0 LINE",
"568 0 LINE"
);
},
{
closed = 1;
nodes = (
"348 1364 LINE",
"352 1440 LINE",
"300 1440 LINE",
"300 0 LINE",
"348 0 LINE"
);
},
{
closed = 1;
nodes = (
"300 1440 LINE",
"92 1440 LINE",
"92 1400 LINE",
"300 1400 LINE"
);
},
{
closed = 1;
nodes = (
"352 1440 LINE",
"348 1364 LINE",
"1272 0 LINE",
"1276 76 LINE"
);
},
{
closed = 1;
nodes = (
"1532 1440 LINE",
"1068 1440 LINE",
"1068 1400 LINE",
"1532 1400 LINE"
);
},
{
closed = 1;
nodes = (
"1324 1440 LINE",
"1276 1440 LINE",
"1276 76 LINE",
"1272 0 LINE",
"1324 0 LINE"
);
}
);
width = 1604;
},
{
layerId = "1E61A082-F045-49A7-AB52-DD1B03FD9B54";
paths = (
{
closed = 1;
nodes = (
"568 40 LINE",
"80 40 LINE",
"80 0 LINE",
"568 0 LINE"
);
},
{
closed = 1;
nodes = (
"348 1364 LINE",
"352 1440 LINE",
"300 1440 LINE",
"300 0 LINE",
"348 0 LINE"
);
},
{
closed = 1;
nodes = (
"300 1440 LINE",
"92 1440 LINE",
"92 1400 LINE",
"300 1400 LINE"
);
},
{
closed = 1;
nodes = (
"352 1440 LINE",
"348 1364 LINE",
"1272 0 LINE",
"1276 76 LINE"
);
},
{
closed = 1;
nodes = (
"1532 1440 LINE",
"1068 1440 LINE",
"1068 1400 LINE",
"1532 1400 LINE"
);
},
{
closed = 1;
nodes = (
"1324 1440 LINE",
"1276 1440 LINE",
"1276 76 LINE",
"1272 0 LINE",
"1324 0 LINE"
);
}
);
width = 1604;
}
);
leftKerningGroup = I;
leftMetricsKey = I;
rightKerningGroup = N;
unicode = 004E;
},
{
glyphname = O;
lastChange = "2020-05-19 09:10:12 +0000";
layers = (
{
layerId = "CA54B7DC-FBBB-40FE-ACF3-AABDD76D6A7B";
paths = (
{
closed = 1;
nodes = (
"1272 -20 OFFCURVE",
"1576 252 OFFCURVE",
"1576 720 CURVE SMOOTH",
"1576 1188 OFFCURVE",
"1272 1460 OFFCURVE",
"866 1460 CURVE SMOOTH",
"460 1460 OFFCURVE",
"156 1188 OFFCURVE",
"156 720 CURVE SMOOTH",
"156 252 OFFCURVE",
"460 -20 OFFCURVE",
"866 -20 CURVE SMOOTH"
);
},
{
closed = 1;
nodes = (
"472 20 OFFCURVE",
"204 296 OFFCURVE",
"204 720 CURVE SMOOTH",
"204 1144 OFFCURVE",
"472 1420 OFFCURVE",
"866 1420 CURVE SMOOTH",
"1260 1420 OFFCURVE",
"1528 1144 OFFCURVE",
"1528 720 CURVE SMOOTH",
"1528 296 OFFCURVE",
"1260 20 OFFCURVE",
"866 20 CURVE SMOOTH"
);
}
);
width = 1732;
},
{
layerId = "1E61A082-F045-49A7-AB52-DD1B03FD9B54";
paths = (
{
closed = 1;
nodes = (
"1272 -20 OFFCURVE",
"1576 252 OFFCURVE",
"1576 720 CURVE SMOOTH",
"1576 1188 OFFCURVE",
"1272 1460 OFFCURVE",
"866 1460 CURVE SMOOTH",
"460 1460 OFFCURVE",
"156 1188 OFFCURVE",
"156 720 CURVE SMOOTH",
"156 252 OFFCURVE",
"460 -20 OFFCURVE",
"866 -20 CURVE SMOOTH"
);
},
{
closed = 1;
nodes = (
"472 20 OFFCURVE",
"204 296 OFFCURVE",
"204 720 CURVE SMOOTH",
"204 1144 OFFCURVE",
"472 1420 OFFCURVE",
"866 1420 CURVE SMOOTH",
"1260 1420 OFFCURVE",
"1528 1144 OFFCURVE",
"1528 720 CURVE SMOOTH",
"1528 296 OFFCURVE",
"1260 20 OFFCURVE",
"866 20 CURVE SMOOTH"
);
}
);
width = 1732;
}
);
leftKerningGroup = O;
rightKerningGroup = O;
unicode = 004F;
},
{
glyphname = P;
lastChange = "2020-05-19 09:31:02 +0000";
layers = (
{
layerId = "CA54B7DC-FBBB-40FE-ACF3-AABDD76D6A7B";
paths = (
{
closed = 1;
nodes = (
"348 1400 LINE",
"848 1400 LINE SMOOTH",
"1108 1400 OFFCURVE",
"1272 1284 OFFCURVE",
"1272 1056 CURVE SMOOTH",
"1272 828 OFFCURVE",
"1108 712 OFFCURVE",
"848 712 CURVE SMOOTH",
"348 712 LINE",
"348 672 LINE",
"860 672 LINE SMOOTH",
"1136 672 OFFCURVE",
"1320 802 OFFCURVE",
"1320 1056 CURVE SMOOTH",
"1320 1310 OFFCURVE",
"1136 1440 OFFCURVE",
"860 1440 CURVE SMOOTH",
"348 1440 LINE"
);
},
{
closed = 1;
nodes = (
"708 40 LINE",
"80 40 LINE",
"80 0 LINE",
"708 0 LINE"
);
},
{
closed = 1;
nodes = (
"348 1440 LINE",
"300 1440 LINE",
"300 0 LINE",
"348 0 LINE"
);
},
{
closed = 1;
nodes = (
"300 1440 LINE",
"92 1440 LINE",
"92 1400 LINE",
"300 1400 LINE"
);
}
);
width = 1400;
},
{
layerId = "1E61A082-F045-49A7-AB52-DD1B03FD9B54";
paths = (
{
closed = 1;
nodes = (
"348 1400 LINE",
"848 1400 LINE SMOOTH",
"1108 1400 OFFCURVE",
"1272 1284 OFFCURVE",
"1272 1056 CURVE SMOOTH",
"1272 828 OFFCURVE",
"1108 712 OFFCURVE",
"848 712 CURVE SMOOTH",
"348 712 LINE",
"348 672 LINE",
"860 672 LINE SMOOTH",
"1136 672 OFFCURVE",
"1320 802 OFFCURVE",
"1320 1056 CURVE SMOOTH",
"1320 1310 OFFCURVE",
"1136 1440 OFFCURVE",
"860 1440 CURVE SMOOTH",
"348 1440 LINE"
);
},
{
closed = 1;
nodes = (
"748 40 LINE",
"80 40 LINE",
"80 0 LINE",
"748 0 LINE"
);
},
{
closed = 1;
nodes = (
"348 1440 LINE",
"300 1440 LINE",
"300 0 LINE",
"348 0 LINE"
);
},
{
closed = 1;
nodes = (
"300 1440 LINE",
"92 1440 LINE",
"92 1400 LINE",
"300 1400 LINE"
);
}
);
width = 1400;
}
);
leftKerningGroup = I;
leftMetricsKey = I;
rightKerningGroup = P;
unicode = 0050;
},
{
glyphname = Q;
lastChange = "2020-05-19 09:10:12 +0000";
layers = (
{
layerId = "CA54B7DC-FBBB-40FE-ACF3-AABDD76D6A7B";
paths = (
{
closed = 1;
nodes = (
"1132 0 LINE",
"1132 196 LINE SMOOTH",
"1132 345 OFFCURVE",
"1054 420 OFFCURVE",
"940 420 CURVE SMOOTH",
"826 420 OFFCURVE",
"744 345 OFFCURVE",
"744 196 CURVE SMOOTH",
"744 0 LINE",
"788 0 LINE",
"788 196 LINE SMOOTH",
"788 319 OFFCURVE",
"842 380 OFFCURVE",
"938 380 CURVE SMOOTH",
"1034 380 OFFCURVE",
"1088 319 OFFCURVE",
"1088 196 CURVE SMOOTH",
"1088 0 LINE"
);
},
{
closed = 1;
nodes = (
"1272 -20 OFFCURVE",
"1576 252 OFFCURVE",
"1576 720 CURVE SMOOTH",
"1576 1188 OFFCURVE",
"1272 1460 OFFCURVE",
"866 1460 CURVE SMOOTH",
"460 1460 OFFCURVE",
"156 1188 OFFCURVE",
"156 720 CURVE SMOOTH",
"156 252 OFFCURVE",
"460 -20 OFFCURVE",
"866 -20 CURVE SMOOTH"
);
},
{
closed = 1;
nodes = (
"472 20 OFFCURVE",
"204 296 OFFCURVE",
"204 720 CURVE SMOOTH",
"204 1144 OFFCURVE",
"472 1420 OFFCURVE",
"866 1420 CURVE SMOOTH",
"1260 1420 OFFCURVE",
"1528 1144 OFFCURVE",
"1528 720 CURVE SMOOTH",
"1528 296 OFFCURVE",
"1260 20 OFFCURVE",
"866 20 CURVE SMOOTH"
);
},
{
closed = 1;
nodes = (
"1432 -116 LINE SMOOTH",
"1432 -239 OFFCURVE",
"1378 -300 OFFCURVE",
"1282 -300 CURVE SMOOTH",
"1186 -300 OFFCURVE",
"1132 -239 OFFCURVE",
"1132 -116 CURVE SMOOTH",
"1132 0 LINE",
"1088 0 LINE",
"1088 -116 LINE SMOOTH",
"1088 -265 OFFCURVE",
"1170 -340 OFFCURVE",
"1284 -340 CURVE SMOOTH",
"1398 -340 OFFCURVE",
"1476 -265 OFFCURVE",
"1476 -116 CURVE SMOOTH",
"1476 0 LINE",
"1432 0 LINE"
);
}
);
width = 1732;
},
{
layerId = "1E61A082-F045-49A7-AB52-DD1B03FD9B54";
paths = (
{
closed = 1;
nodes = (
"1132 0 LINE",
"1132 196 LINE SMOOTH",
"1132 345 OFFCURVE",
"1054 420 OFFCURVE",
"940 420 CURVE SMOOTH",
"826 420 OFFCURVE",
"744 345 OFFCURVE",
"744 196 CURVE SMOOTH",
"744 0 LINE",
"788 0 LINE",
"788 196 LINE SMOOTH",
"788 319 OFFCURVE",
"842 380 OFFCURVE",
"938 380 CURVE SMOOTH",
"1034 380 OFFCURVE",
"1088 319 OFFCURVE",
"1088 196 CURVE SMOOTH",
"1088 0 LINE"
);
},
{
closed = 1;
nodes = (
"1272 -20 OFFCURVE",
"1576 252 OFFCURVE",
"1576 720 CURVE SMOOTH",
"1576 1188 OFFCURVE",
"1272 1460 OFFCURVE",
"866 1460 CURVE SMOOTH",
"460 1460 OFFCURVE",
"156 1188 OFFCURVE",
"156 720 CURVE SMOOTH",
"156 252 OFFCURVE",
"460 -20 OFFCURVE",
"866 -20 CURVE SMOOTH"
);
},
{
closed = 1;
nodes = (
"472 20 OFFCURVE",
"204 296 OFFCURVE",
"204 720 CURVE SMOOTH",
"204 1144 OFFCURVE",
"472 1420 OFFCURVE",
"866 1420 CURVE SMOOTH",
"1260 1420 OFFCURVE",
"1528 1144 OFFCURVE",
"1528 720 CURVE SMOOTH",
"1528 296 OFFCURVE",
"1260 20 OFFCURVE",
"866 20 CURVE SMOOTH"
);
},
{
closed = 1;
nodes = (
"1432 -116 LINE SMOOTH",
"1432 -239 OFFCURVE",
"1378 -300 OFFCURVE",
"1282 -300 CURVE SMOOTH",
"1186 -300 OFFCURVE",
"1132 -239 OFFCURVE",
"1132 -116 CURVE SMOOTH",
"1132 0 LINE",
"1088 0 LINE",
"1088 -116 LINE SMOOTH",
"1088 -265 OFFCURVE",
"1170 -340 OFFCURVE",
"1284 -340 CURVE SMOOTH",
"1398 -340 OFFCURVE",
"1476 -265 OFFCURVE",
"1476 -116 CURVE SMOOTH",
"1476 0 LINE",
"1432 0 LINE"
);
}
);
width = 1732;
}
);
leftKerningGroup = O;
leftMetricsKey = O;
rightKerningGroup = O;
rightMetricsKey = O;
unicode = 0051;
},
{
glyphname = R;
lastChange = "2020-05-19 09:31:18 +0000";
layers = (
{
layerId = "CA54B7DC-FBBB-40FE-ACF3-AABDD76D6A7B";
paths = (
{
closed = 1;
nodes = (
"348 1400 LINE",
"848 1400 LINE SMOOTH",
"1108 1400 OFFCURVE",
"1272 1290 OFFCURVE",
"1272 1072 CURVE SMOOTH",
"1272 854 OFFCURVE",
"1108 744 OFFCURVE",
"848 744 CURVE SMOOTH",
"348 744 LINE",
"348 704 LINE",
"814 704 LINE",
"860 704 LINE",
"1132 704 OFFCURVE",
"1320 828 OFFCURVE",
"1320 1072 CURVE SMOOTH",
"1320 1316 OFFCURVE",
"1132 1440 OFFCURVE",
"860 1440 CURVE SMOOTH",
"348 1440 LINE"
);
},
{
closed = 1;
nodes = (
"628 40 LINE",
"80 40 LINE",
"80 0 LINE",
"628 0 LINE"
);
},
{
closed = 1;
nodes = (
"348 1440 LINE",
"300 1440 LINE",
"300 0 LINE",
"348 0 LINE"
);
},
{
closed = 1;
nodes = (
"300 1440 LINE",
"92 1440 LINE",
"92 1400 LINE",
"300 1400 LINE"
);
},
{
closed = 1;
nodes = (
"348 704 LINE",
"724 704 LINE SMOOTH",
"886 704 OFFCURVE",
"976 608 OFFCURVE",
"976 436 CURVE SMOOTH",
"976 180 LINE SMOOTH",
"976 58 OFFCURVE",
"1032 -20 OFFCURVE",
"1152 -20 CURVE SMOOTH",
"1272 -20 OFFCURVE",
"1328 58 OFFCURVE",
"1328 180 CURVE SMOOTH",
"1328 540 LINE",
"1284 540 LINE",
"1284 180 LINE SMOOTH",
"1284 90 OFFCURVE",
"1248 20 OFFCURVE",
"1154 20 CURVE SMOOTH",
"1060 20 OFFCURVE",
"1024 90 OFFCURVE",
"1024 180 CURVE SMOOTH",
"1024 428 LINE SMOOTH",
"1024 622 OFFCURVE",
"934 730 OFFCURVE",
"742 730 CURVE SMOOTH",
"348 730 LINE"
);
}
);
width = 1436;
},
{
layerId = "1E61A082-F045-49A7-AB52-DD1B03FD9B54";
paths = (
{
closed = 1;
nodes = (
"348 1400 LINE",
"848 1400 LINE SMOOTH",
"1108 1400 OFFCURVE",
"1272 1290 OFFCURVE",
"1272 1072 CURVE SMOOTH",
"1272 854 OFFCURVE",
"1108 744 OFFCURVE",
"848 744 CURVE SMOOTH",
"348 744 LINE",
"348 704 LINE",
"814 704 LINE",
"860 704 LINE",
"1132 704 OFFCURVE",
"1320 828 OFFCURVE",
"1320 1072 CURVE SMOOTH",
"1320 1316 OFFCURVE",
"1132 1440 OFFCURVE",
"860 1440 CURVE SMOOTH",
"348 1440 LINE"
);
},
{
closed = 1;
nodes = (
"628 40 LINE",
"80 40 LINE",
"80 0 LINE",
"628 0 LINE"
);
},
{
closed = 1;
nodes = (
"348 1440 LINE",
"300 1440 LINE",
"300 0 LINE",
"348 0 LINE"
);
},
{
closed = 1;
nodes = (
"300 1440 LINE",
"92 1440 LINE",
"92 1400 LINE",
"300 1400 LINE"
);
},
{
closed = 1;
nodes = (
"348 704 LINE",
"724 704 LINE SMOOTH",
"886 704 OFFCURVE",
"976 608 OFFCURVE",
"976 436 CURVE SMOOTH",
"976 180 LINE SMOOTH",
"976 58 OFFCURVE",
"1032 -20 OFFCURVE",
"1152 -20 CURVE SMOOTH",
"1272 -20 OFFCURVE",
"1328 58 OFFCURVE",
"1328 180 CURVE SMOOTH",
"1328 560 LINE",
"1284 560 LINE",
"1284 180 LINE SMOOTH",
"1284 90 OFFCURVE",
"1248 20 OFFCURVE",
"1154 20 CURVE SMOOTH",
"1060 20 OFFCURVE",
"1024 90 OFFCURVE",
"1024 180 CURVE SMOOTH",
"1024 428 LINE SMOOTH",
"1024 622 OFFCURVE",
"934 730 OFFCURVE",
"742 730 CURVE SMOOTH",
"348 730 LINE"
);
}
);
width = 1436;
}
);
leftKerningGroup = I;
leftMetricsKey = I;
rightKerningGroup = R;
unicode = 0052;
},
{
glyphname = S;
lastChange = "2020-05-19 09:32:50 +0000";
layers = (
{
layerId = "CA54B7DC-FBBB-40FE-ACF3-AABDD76D6A7B";
paths = (
{
closed = 1;
nodes = (
"168 850 OFFCURVE",
"350 767 OFFCURVE",
"596 732 CURVE SMOOTH",
"804 702 LINE SMOOTH",
"1054 666 OFFCURVE",
"1212 582 OFFCURVE",
"1212 366 CURVE SMOOTH",
"1212 150 OFFCURVE",
"1048 24 OFFCURVE",
"784 24 CURVE SMOOTH",
"520 24 OFFCURVE",
"304 148 OFFCURVE",
"200 420 CURVE",
"160 420 LINE",
"254 114 OFFCURVE",
"500 -16 OFFCURVE",
"784 -16 CURVE SMOOTH",
"1068 -16 OFFCURVE",
"1260 114 OFFCURVE",
"1260 366 CURVE SMOOTH",
"1260 618 OFFCURVE",
"1074 708 OFFCURVE",
"812 746 CURVE SMOOTH",
"604 776 LINE SMOOTH",
"372 809 OFFCURVE",
"216 886 OFFCURVE",
"216 1094 CURVE SMOOTH",
"216 1302 OFFCURVE",
"378 1416 OFFCURVE",
"634 1416 CURVE SMOOTH",
"890 1416 OFFCURVE",
"1090 1304 OFFCURVE",
"1184 1040 CURVE",
"1224 1040 LINE",
"1144 1340 OFFCURVE",
"906 1456 OFFCURVE",
"634 1456 CURVE SMOOTH",
"362 1456 OFFCURVE",
"168 1338 OFFCURVE",
"168 1094 CURVE SMOOTH"
);
},
{
closed = 1;
nodes = (
"1188 1440 LINE",
"1188 1114 LINE",
"1224 1040 LINE",
"1228 1040 LINE",
"1228 1440 LINE"
);
},
{
closed = 1;
nodes = (
"196 0 LINE",
"196 342 LINE",
"160 420 LINE",
"156 420 LINE",
"156 0 LINE"
);
}
);
width = 1396;
},
{
layerId = "1E61A082-F045-49A7-AB52-DD1B03FD9B54";
paths = (
{
closed = 1;
nodes = (
"168 856 OFFCURVE",
"350 781 OFFCURVE",
"596 736 CURVE SMOOTH",
"804 698 LINE SMOOTH",
"1054 652 OFFCURVE",
"1212 576 OFFCURVE",
"1212 360 CURVE SMOOTH",
"1212 144 OFFCURVE",
"1058 24 OFFCURVE",
"794 24 CURVE SMOOTH",
"530 24 OFFCURVE",
"304 180 OFFCURVE",
"200 520 CURVE",
"160 520 LINE",
"254 144 OFFCURVE",
"510 -16 OFFCURVE",
"794 -16 CURVE SMOOTH",
"1078 -16 OFFCURVE",
"1260 108 OFFCURVE",
"1260 360 CURVE SMOOTH",
"1260 612 OFFCURVE",
"1074 694 OFFCURVE",
"812 742 CURVE SMOOTH",
"604 780 LINE SMOOTH",
"372 822 OFFCURVE",
"216 892 OFFCURVE",
"216 1100 CURVE SMOOTH",
"216 1308 OFFCURVE",
"368 1416 OFFCURVE",
"624 1416 CURVE SMOOTH",
"880 1416 OFFCURVE",
"1090 1273 OFFCURVE",
"1184 940 CURVE",
"1224 940 LINE",
"1144 1311 OFFCURVE",
"896 1456 OFFCURVE",
"624 1456 CURVE SMOOTH",
"352 1456 OFFCURVE",
"168 1344 OFFCURVE",
"168 1100 CURVE SMOOTH"
);
},
{
closed = 1;
nodes = (
"1188 1440 LINE",
"1188 1014 LINE",
"1224 940 LINE",
"1228 940 LINE",
"1228 1440 LINE"
);
},
{
closed = 1;
nodes = (
"196 0 LINE",
"196 442 LINE",
"160 520 LINE",
"156 520 LINE",
"156 0 LINE"
);
}
);
width = 1396;
}
);
leftKerningGroup = S;
rightKerningGroup = S;
unicode = 0053;
},
{
glyphname = T;
lastChange = "2020-05-19 09:29:56 +0000";
layers = (
{
layerId = "CA54B7DC-FBBB-40FE-ACF3-AABDD76D6A7B";
paths = (
{
closed = 1;
nodes = (
"1068 40 LINE",
"420 40 LINE",
"420 0 LINE",
"1068 0 LINE"
);
},
{
closed = 1;
nodes = (
"768 1440 LINE",
"720 1440 LINE",
"720 0 LINE",
"768 0 LINE"
);
},
{
closed = 1;
nodes = (
"1388 1440 LINE",
"100 1440 LINE",
"100 1400 LINE",
"1388 1400 LINE"
);
},
{
closed = 1;
nodes = (
"1340 1400 OFFCURVE",
"1348 1372 OFFCURVE",
"1348 1260 CURVE SMOOTH",
"1348 970 LINE",
"1388 970 LINE",
"1388 1400 LINE",
"1228 1400 LINE"
);
},
{
closed = 1;
nodes = (
"100 1400 LINE",
"100 970 LINE",
"140 970 LINE",
"140 1260 LINE SMOOTH",
"140 1372 OFFCURVE",
"148 1400 OFFCURVE",
"260 1400 CURVE"
);
}
);
width = 1488;
},
{
layerId = "1E61A082-F045-49A7-AB52-DD1B03FD9B54";
paths = (
{
closed = 1;
nodes = (
"1128 40 LINE",
"360 40 LINE",
"360 0 LINE",
"1128 0 LINE"
);
},
{
closed = 1;
nodes = (
"768 1440 LINE",
"720 1440 LINE",
"720 0 LINE",
"768 0 LINE"
);
},
{
closed = 1;
nodes = (
"1388 1440 LINE",
"100 1440 LINE",
"100 1400 LINE",
"1388 1400 LINE"
);
},
{
closed = 1;
nodes = (
"1340 1400 OFFCURVE",
"1348 1372 OFFCURVE",
"1348 1260 CURVE SMOOTH",
"1348 920 LINE",
"1388 920 LINE",
"1388 1400 LINE",
"1228 1400 LINE"
);
},
{
closed = 1;
nodes = (
"100 1400 LINE",
"100 920 LINE",
"140 920 LINE",
"140 1260 LINE SMOOTH",
"140 1372 OFFCURVE",
"148 1400 OFFCURVE",
"260 1400 CURVE"
);
}
);
width = 1488;
}
);
leftKerningGroup = T;
rightKerningGroup = T;
unicode = 0054;
},
{
glyphname = U;
lastChange = "2020-05-19 09:10:12 +0000";
layers = (
{
layerId = "CA54B7DC-FBBB-40FE-ACF3-AABDD76D6A7B";
paths = (
{
closed = 1;
nodes = (
"288 178 OFFCURVE",
"462 -20 OFFCURVE",
"804 -20 CURVE SMOOTH",
"1146 -20 OFFCURVE",
"1320 178 OFFCURVE",
"1320 528 CURVE SMOOTH",
"1320 1440 LINE",
"1272 1440 LINE",
"1272 528 LINE SMOOTH",
"1272 216 OFFCURVE",
"1124 20 OFFCURVE",
"804 20 CURVE SMOOTH",
"484 20 OFFCURVE",
"336 216 OFFCURVE",
"336 528 CURVE SMOOTH",
"336 1440 LINE",
"288 1440 LINE",
"288 528 LINE SMOOTH"
);
},
{
closed = 1;
nodes = (
"1044 1400 LINE",
"1528 1400 LINE",
"1528 1440 LINE",
"1044 1440 LINE"
);
},
{
closed = 1;
nodes = (
"80 1440 LINE",
"80 1400 LINE",
"564 1400 LINE",
"564 1440 LINE"
);
}
);
width = 1572;
},
{
layerId = "1E61A082-F045-49A7-AB52-DD1B03FD9B54";
paths = (
{
closed = 1;
nodes = (
"288 178 OFFCURVE",
"462 -20 OFFCURVE",
"804 -20 CURVE SMOOTH",
"1146 -20 OFFCURVE",
"1320 178 OFFCURVE",
"1320 528 CURVE SMOOTH",
"1320 1440 LINE",
"1272 1440 LINE",
"1272 528 LINE SMOOTH",
"1272 216 OFFCURVE",
"1124 20 OFFCURVE",
"804 20 CURVE SMOOTH",
"484 20 OFFCURVE",
"336 216 OFFCURVE",
"336 528 CURVE SMOOTH",
"336 1440 LINE",
"288 1440 LINE",
"288 528 LINE SMOOTH"
);
},
{
closed = 1;
nodes = (
"1044 1400 LINE",
"1528 1400 LINE",
"1528 1440 LINE",
"1044 1440 LINE"
);
},
{
closed = 1;
nodes = (
"80 1440 LINE",
"80 1400 LINE",
"564 1400 LINE",
"564 1440 LINE"
);
}
);
width = 1572;
}
);
leftKerningGroup = U;
rightKerningGroup = U;
unicode = 0055;
},
{
glyphname = V;
lastChange = "2020-05-19 09:10:12 +0000";
layers = (
{
layerId = "CA54B7DC-FBBB-40FE-ACF3-AABDD76D6A7B";
paths = (
{
closed = 1;
nodes = (
"1320 1400 LINE",
"1272 1400 LINE",
"744 50 LINE",
"746 0 LINE",
"772 0 LINE"
);
},
{
closed = 1;
nodes = (
"758 0 LINE",
"762 42 LINE",
"230 1400 LINE",
"180 1400 LINE",
"728 0 LINE"
);
},
{
closed = 1;
nodes = (
"1480 1440 LINE",
"1012 1440 LINE",
"1012 1400 LINE",
"1480 1400 LINE"
);
},
{
closed = 1;
nodes = (
"510 1440 LINE",
"20 1440 LINE",
"20 1400 LINE",
"510 1400 LINE"
);
}
);
width = 1500;
},
{
layerId = "1E61A082-F045-49A7-AB52-DD1B03FD9B54";
paths = (
{
closed = 1;
nodes = (
"1320 1400 LINE",
"1272 1400 LINE",
"744 50 LINE",
"746 0 LINE",
"772 0 LINE"
);
},
{
closed = 1;
nodes = (
"758 0 LINE",
"762 42 LINE",
"230 1400 LINE",
"180 1400 LINE",
"728 0 LINE"
);
},
{
closed = 1;
nodes = (
"1480 1440 LINE",
"1012 1440 LINE",
"1012 1400 LINE",
"1480 1400 LINE"
);
},
{
closed = 1;
nodes = (
"510 1440 LINE",
"20 1440 LINE",
"20 1400 LINE",
"510 1400 LINE"
);
}
);
width = 1500;
}
);
leftKerningGroup = V;
rightKerningGroup = V;
unicode = 0056;
},
{
glyphname = W;
lastChange = "2020-05-19 09:10:12 +0000";
layers = (
{
layerId = "CA54B7DC-FBBB-40FE-ACF3-AABDD76D6A7B";
paths = (
{
closed = 1;
nodes = (
"1050 1072 LINE",
"1016 1106 LINE",
"662 50 LINE",
"666 0 LINE",
"692 0 LINE"
);
},
{
closed = 1;
nodes = (
"678 0 LINE",
"682 42 LINE",
"228 1400 LINE",
"180 1400 LINE",
"648 0 LINE"
);
},
{
closed = 1;
nodes = (
"508 1440 LINE",
"20 1440 LINE",
"20 1400 LINE",
"508 1400 LINE"
);
},
{
closed = 1;
nodes = (
"1880 1400 LINE",
"1834 1400 LINE",
"1382 50 LINE",
"1386 0 LINE",
"1412 0 LINE"
);
},
{
closed = 1;
nodes = (
"1398 0 LINE",
"1402 42 LINE",
"948 1400 LINE",
"900 1400 LINE",
"1368 0 LINE"
);
},
{
closed = 1;
nodes = (
"2040 1440 LINE",
"1554 1440 LINE",
"1554 1400 LINE",
"2040 1400 LINE"
);
},
{
closed = 1;
nodes = (
"1228 1440 LINE",
"740 1440 LINE",
"740 1400 LINE",
"1228 1400 LINE"
);
}
);
width = 2060;
},
{
layerId = "1E61A082-F045-49A7-AB52-DD1B03FD9B54";
paths = (
{
closed = 1;
nodes = (
"1050 1072 LINE",
"1016 1106 LINE",
"662 50 LINE",
"666 0 LINE",
"692 0 LINE"
);
},
{
closed = 1;
nodes = (
"678 0 LINE",
"682 42 LINE",
"228 1400 LINE",
"180 1400 LINE",
"648 0 LINE"
);
},
{
closed = 1;
nodes = (
"508 1440 LINE",
"20 1440 LINE",
"20 1400 LINE",
"508 1400 LINE"
);
},
{
closed = 1;
nodes = (
"1880 1400 LINE",
"1834 1400 LINE",
"1382 50 LINE",
"1386 0 LINE",
"1412 0 LINE"
);
},
{
closed = 1;
nodes = (
"1398 0 LINE",
"1402 42 LINE",
"948 1400 LINE",
"900 1400 LINE",
"1368 0 LINE"
);
},
{
closed = 1;
nodes = (
"2040 1440 LINE",
"1554 1440 LINE",
"1554 1400 LINE",
"2040 1400 LINE"
);
},
{
closed = 1;
nodes = (
"1228 1440 LINE",
"740 1440 LINE",
"740 1400 LINE",
"1228 1400 LINE"
);
}
);
width = 2060;
}
);
leftKerningGroup = W;
leftMetricsKey = V;
rightKerningGroup = W;
rightMetricsKey = V;
unicode = 0057;
},
{
glyphname = X;
lastChange = "2020-05-19 09:10:12 +0000";
layers = (
{
layerId = "CA54B7DC-FBBB-40FE-ACF3-AABDD76D6A7B";
paths = (
{
closed = 1;
nodes = (
"768 708 LINE",
"1296 1400 LINE",
"1238 1400 LINE",
"754 764 LINE"
);
},
{
closed = 1;
nodes = (
"1456 1440 LINE",
"998 1440 LINE",
"998 1400 LINE",
"1456 1400 LINE"
);
},
{
closed = 1;
nodes = (
"748 764 LINE",
"192 40 LINE",
"250 40 LINE",
"762 708 LINE"
);
},
{
closed = 1;
nodes = (
"490 40 LINE",
"32 40 LINE",
"32 0 LINE",
"490 0 LINE"
);
},
{
closed = 1;
nodes = (
"278 1400 LINE",
"220 1400 LINE",
"748 708 LINE",
"762 764 LINE"
);
},
{
closed = 1;
nodes = (
"538 1400 LINE",
"538 1440 LINE",
"60 1440 LINE",
"60 1400 LINE"
);
},
{
closed = 1;
nodes = (
"1266 40 LINE",
"1324 40 LINE",
"768 764 LINE",
"754 708 LINE"
);
},
{
closed = 1;
nodes = (
"1484 0 LINE",
"1484 40 LINE",
"1006 40 LINE",
"1006 0 LINE"
);
},
{
closed = 1;
nodes = (
"770 716 OFFCURVE",
"778 724 OFFCURVE",
"778 736 CURVE SMOOTH",
"778 748 OFFCURVE",
"770 756 OFFCURVE",
"758 756 CURVE SMOOTH",
"746 756 OFFCURVE",
"738 748 OFFCURVE",
"738 736 CURVE SMOOTH",
"738 724 OFFCURVE",
"746 716 OFFCURVE",
"758 716 CURVE SMOOTH"
);
}
);
width = 1516;
},
{
layerId = "1E61A082-F045-49A7-AB52-DD1B03FD9B54";
paths = (
{
closed = 1;
nodes = (
"768 708 LINE",
"1296 1400 LINE",
"1238 1400 LINE",
"754 764 LINE"
);
},
{
closed = 1;
nodes = (
"1456 1440 LINE",
"998 1440 LINE",
"998 1400 LINE",
"1456 1400 LINE"
);
},
{
closed = 1;
nodes = (
"748 764 LINE",
"192 40 LINE",
"250 40 LINE",
"762 708 LINE"
);
},
{
closed = 1;
nodes = (
"490 40 LINE",
"32 40 LINE",
"32 0 LINE",
"490 0 LINE"
);
},
{
closed = 1;
nodes = (
"278 1400 LINE",
"220 1400 LINE",
"748 708 LINE",
"762 764 LINE"
);
},
{
closed = 1;
nodes = (
"538 1400 LINE",
"538 1440 LINE",
"60 1440 LINE",
"60 1400 LINE"
);
},
{
closed = 1;
nodes = (
"1266 40 LINE",
"1324 40 LINE",
"768 764 LINE",
"754 708 LINE"
);
},
{
closed = 1;
nodes = (
"1484 0 LINE",
"1484 40 LINE",
"1006 40 LINE",
"1006 0 LINE"
);
},
{
closed = 1;
nodes = (
"770 716 OFFCURVE",
"778 724 OFFCURVE",
"778 736 CURVE SMOOTH",
"778 748 OFFCURVE",
"770 756 OFFCURVE",
"758 756 CURVE SMOOTH",
"746 756 OFFCURVE",
"738 748 OFFCURVE",
"738 736 CURVE SMOOTH",
"738 724 OFFCURVE",
"746 716 OFFCURVE",
"758 716 CURVE SMOOTH"
);
}
);
width = 1516;
}
);
leftKerningGroup = X;
rightKerningGroup = X;
unicode = 0058;
},
{
glyphname = Y;
lastChange = "2020-05-19 09:30:36 +0000";
layers = (
{
layerId = "CA54B7DC-FBBB-40FE-ACF3-AABDD76D6A7B";
paths = (
{
closed = 1;
nodes = (
"1052 1400 LINE",
"1504 1400 LINE",
"1504 1440 LINE",
"1052 1440 LINE"
);
},
{
closed = 1;
nodes = (
"792 582 LINE",
"1344 1400 LINE",
"1292 1400 LINE",
"754 604 LINE"
);
},
{
closed = 1;
nodes = (
"1072 40 LINE",
"464 40 LINE",
"464 0 LINE",
"1072 0 LINE"
);
},
{
closed = 1;
nodes = (
"792 612 LINE",
"744 612 LINE",
"744 0 LINE",
"792 0 LINE"
);
},
{
closed = 1;
nodes = (
"32 1440 LINE",
"32 1400 LINE",
"508 1400 LINE",
"508 1440 LINE"
);
},
{
closed = 1;
nodes = (
"248 1400 LINE",
"192 1400 LINE",
"744 582 LINE",
"784 604 LINE"
);
}
);
width = 1536;
},
{
layerId = "1E61A082-F045-49A7-AB52-DD1B03FD9B54";
paths = (
{
closed = 1;
nodes = (
"1052 1400 LINE",
"1504 1400 LINE",
"1504 1440 LINE",
"1052 1440 LINE"
);
},
{
closed = 1;
nodes = (
"792 582 LINE",
"1344 1400 LINE",
"1292 1400 LINE",
"754 604 LINE"
);
},
{
closed = 1;
nodes = (
"1132 40 LINE",
"404 40 LINE",
"404 0 LINE",
"1132 0 LINE"
);
},
{
closed = 1;
nodes = (
"792 612 LINE",
"744 612 LINE",
"744 0 LINE",
"792 0 LINE"
);
},
{
closed = 1;
nodes = (
"32 1440 LINE",
"32 1400 LINE",
"508 1400 LINE",
"508 1440 LINE"
);
},
{
closed = 1;
nodes = (
"248 1400 LINE",
"192 1400 LINE",
"744 582 LINE",
"784 604 LINE"
);
}
);
width = 1536;
}
);
leftKerningGroup = Y;
rightKerningGroup = Y;
unicode = 0059;
},
{
glyphname = Z;
lastChange = "2020-05-19 09:31:46 +0000";
layers = (
{
layerId = "CA54B7DC-FBBB-40FE-ACF3-AABDD76D6A7B";
paths = (
{
closed = 1;
nodes = (
"160 1400 LINE",
"1150 1400 LINE",
"1208 1404 LINE",
"1208 1440 LINE",
"160 1440 LINE"
);
},
{
closed = 1;
nodes = (
"128 0 LINE",
"1208 0 LINE",
"1208 40 LINE",
"186 40 LINE",
"128 36 LINE"
);
},
{
closed = 1;
nodes = (
"186 40 LINE",
"1208 1404 LINE",
"1150 1400 LINE",
"128 36 LINE"
);
},
{
closed = 1;
nodes = (
"160 1400 LINE",
"160 970 LINE",
"200 970 LINE",
"200 1260 LINE SMOOTH",
"200 1372 OFFCURVE",
"208 1400 OFFCURVE",
"320 1400 CURVE"
);
},
{
closed = 1;
nodes = (
"1208 40 LINE",
"1208 490 LINE",
"1168 490 LINE",
"1168 180 LINE SMOOTH",
"1168 68 OFFCURVE",
"1160 40 OFFCURVE",
"1048 40 CURVE"
);
}
);
width = 1316;
},
{
layerId = "1E61A082-F045-49A7-AB52-DD1B03FD9B54";
paths = (
{
closed = 1;
nodes = (
"160 1400 LINE",
"1150 1400 LINE",
"1208 1404 LINE",
"1208 1440 LINE",
"160 1440 LINE"
);
},
{
closed = 1;
nodes = (
"128 0 LINE",
"1208 0 LINE",
"1208 40 LINE",
"186 40 LINE",
"128 36 LINE"
);
},
{
closed = 1;
nodes = (
"186 40 LINE",
"1208 1404 LINE",
"1150 1400 LINE",
"128 36 LINE"
);
},
{
closed = 1;
nodes = (
"160 1400 LINE",
"160 920 LINE",
"200 920 LINE",
"200 1260 LINE SMOOTH",
"200 1372 OFFCURVE",
"208 1400 OFFCURVE",
"320 1400 CURVE"
);
},
{
closed = 1;
nodes = (
"1208 40 LINE",
"1208 540 LINE",
"1168 540 LINE",
"1168 180 LINE SMOOTH",
"1168 68 OFFCURVE",
"1160 40 OFFCURVE",
"1048 40 CURVE"
);
}
);
width = 1316;
}
);
leftKerningGroup = Z;
rightKerningGroup = Z;
unicode = 005A;
},
{
glyphname = a;
lastChange = "2020-05-19 09:38:39 +0000";
layers = (
{
layerId = "CA54B7DC-FBBB-40FE-ACF3-AABDD76D6A7B";
paths = (
{
closed = 1;
nodes = (
"198 748 OFFCURVE",
"216 704 OFFCURVE",
"252 704 CURVE SMOOTH",
"274 704 OFFCURVE",
"286 716 OFFCURVE",
"286 738 CURVE SMOOTH",
"286 780 OFFCURVE",
"258 782 OFFCURVE",
"260 848 CURVE SMOOTH",
"264 986 OFFCURVE",
"420 1080 OFFCURVE",
"594 1080 CURVE SMOOTH",
"798 1080 OFFCURVE",
"884 990 OFFCURVE",
"884 852 CURVE",
"932 834 LINE",
"932 1028 OFFCURVE",
"810 1120 OFFCURVE",
"602 1120 CURVE SMOOTH",
"390 1120 OFFCURVE",
"206 1008 OFFCURVE",
"200 808 CURVE SMOOTH"
);
},
{
closed = 1;
nodes = (
"624 568 LINE SMOOTH",
"776 606 OFFCURVE",
"850 636 OFFCURVE",
"884 710 CURVE",
"884 844 LINE",
"884 686 OFFCURVE",
"774 646 OFFCURVE",
"616 608 CURVE SMOOTH",
"462 570 LINE SMOOTH",
"252 518 OFFCURVE",
"140 432 OFFCURVE",
"140 254 CURVE SMOOTH",
"140 82 OFFCURVE",
"272 -16 OFFCURVE",
"466 -16 CURVE SMOOTH",
"726 -16 OFFCURVE",
"924 126 OFFCURVE",
"922 486 CURVE",
"884 486 LINE",
"884 150 OFFCURVE",
"696 24 OFFCURVE",
"472 24 CURVE SMOOTH",
"306 24 OFFCURVE",
"188 104 OFFCURVE",
"188 254 CURVE SMOOTH",
"188 406 OFFCURVE",
"274 482 OFFCURVE",
"478 532 CURVE SMOOTH"
);
},
{
closed = 1;
nodes = (
"884 330 LINE",
"888 330 LINE",
"888 176 LINE SMOOTH",
"888 54 OFFCURVE",
"954 -16 OFFCURVE",
"1062 -16 CURVE SMOOTH",
"1170 -16 OFFCURVE",
"1236 54 OFFCURVE",
"1236 176 CURVE SMOOTH",
"1236 520 LINE",
"1192 520 LINE",
"1192 176 LINE SMOOTH",
"1192 86 OFFCURVE",
"1148 24 OFFCURVE",
"1062 24 CURVE SMOOTH",
"976 24 OFFCURVE",
"932 86 OFFCURVE",
"932 176 CURVE SMOOTH",
"932 834 LINE",
"884 852 LINE"
);
}
);
width = 1320;
},
{
layerId = "1E61A082-F045-49A7-AB52-DD1B03FD9B54";
paths = (
{
closed = 1;
nodes = (
"176 718 OFFCURVE",
"194 674 OFFCURVE",
"230 674 CURVE SMOOTH",
"252 674 OFFCURVE",
"264 686 OFFCURVE",
"264 708 CURVE SMOOTH",
"264 750 OFFCURVE",
"236 752 OFFCURVE",
"238 818 CURVE SMOOTH",
"242 962 OFFCURVE",
"398 1060 OFFCURVE",
"572 1060 CURVE SMOOTH",
"776 1060 OFFCURVE",
"862 974 OFFCURVE",
"862 842 CURVE",
"910 824 LINE",
"910 1011 OFFCURVE",
"788 1100 OFFCURVE",
"580 1100 CURVE SMOOTH",
"368 1100 OFFCURVE",
"185 985 OFFCURVE",
"178 778 CURVE SMOOTH"
);
},
{
closed = 1;
nodes = (
"602 558 LINE SMOOTH",
"754 596 OFFCURVE",
"828 626 OFFCURVE",
"862 700 CURVE",
"862 834 LINE",
"862 676 OFFCURVE",
"752 637 OFFCURVE",
"594 598 CURVE SMOOTH",
"440 560 LINE SMOOTH",
"230 508 OFFCURVE",
"118 424 OFFCURVE",
"118 249 CURVE SMOOTH",
"118 80 OFFCURVE",
"250 -16 OFFCURVE",
"444 -16 CURVE SMOOTH",
"704 -16 OFFCURVE",
"902 123 OFFCURVE",
"900 476 CURVE",
"862 476 LINE",
"862 147 OFFCURVE",
"674 24 OFFCURVE",
"450 24 CURVE SMOOTH",
"284 24 OFFCURVE",
"166 102 OFFCURVE",
"166 249 CURVE SMOOTH",
"166 398 OFFCURVE",
"252 472 OFFCURVE",
"456 522 CURVE SMOOTH"
);
},
{
closed = 1;
nodes = (
"862 320 LINE",
"866 320 LINE",
"866 176 LINE SMOOTH",
"866 54 OFFCURVE",
"932 -16 OFFCURVE",
"1040 -16 CURVE SMOOTH",
"1148 -16 OFFCURVE",
"1214 54 OFFCURVE",
"1214 176 CURVE SMOOTH",
"1214 550 LINE",
"1170 550 LINE",
"1170 176 LINE SMOOTH",
"1170 86 OFFCURVE",
"1126 24 OFFCURVE",
"1040 24 CURVE SMOOTH",
"954 24 OFFCURVE",
"910 86 OFFCURVE",
"910 176 CURVE SMOOTH",
"910 824 LINE",
"862 842 LINE"
);
}
);
width = 1280;
}
);
leftKerningGroup = a;
rightKerningGroup = a;
unicode = 0061;
},
{
glyphname = b;
lastChange = "2020-05-19 09:42:05 +0000";
layers = (
{
layerId = "CA54B7DC-FBBB-40FE-ACF3-AABDD76D6A7B";
paths = (
{
closed = 1;
nodes = (
"328 334 LINE",
"302 550 LINE",
"332 746 LINE",
"332 1520 LINE",
"284 1520 LINE",
"284 0 LINE",
"328 0 LINE"
);
},
{
closed = 1;
nodes = (
"104 1480 LINE",
"332 1480 LINE",
"332 1520 LINE",
"104 1520 LINE"
);
},
{
closed = 1;
nodes = (
"1034 -16 OFFCURVE",
"1232 198 OFFCURVE",
"1232 550 CURVE SMOOTH",
"1232 902 OFFCURVE",
"1034 1116 OFFCURVE",
"760 1116 CURVE SMOOTH",
"466 1116 OFFCURVE",
"288 902 OFFCURVE",
"288 550 CURVE SMOOTH",
"288 198 OFFCURVE",
"466 -16 OFFCURVE",
"760 -16 CURVE SMOOTH"
);
},
{
closed = 1;
nodes = (
"508 24 OFFCURVE",
"328 220 OFFCURVE",
"328 550 CURVE SMOOTH",
"328 880 OFFCURVE",
"508 1076 OFFCURVE",
"760 1076 CURVE SMOOTH",
"1008 1076 OFFCURVE",
"1184 880 OFFCURVE",
"1184 550 CURVE SMOOTH",
"1184 220 OFFCURVE",
"1008 24 OFFCURVE",
"760 24 CURVE SMOOTH"
);
}
);
width = 1392;
},
{
layerId = "1E61A082-F045-49A7-AB52-DD1B03FD9B54";
paths = (
{
closed = 1;
nodes = (
"266 324 LINE",
"240 540 LINE",
"270 736 LINE",
"270 1480 LINE",
"222 1480 LINE",
"222 0 LINE",
"266 0 LINE"
);
},
{
closed = 1;
nodes = (
"42 1440 LINE",
"270 1440 LINE",
"270 1480 LINE",
"42 1480 LINE"
);
},
{
closed = 1;
nodes = (
"972 -16 OFFCURVE",
"1170 194 OFFCURVE",
"1170 540 CURVE SMOOTH",
"1170 886 OFFCURVE",
"972 1096 OFFCURVE",
"698 1096 CURVE SMOOTH",
"404 1096 OFFCURVE",
"226 886 OFFCURVE",
"226 540 CURVE SMOOTH",
"226 194 OFFCURVE",
"404 -16 OFFCURVE",
"698 -16 CURVE SMOOTH"
);
},
{
closed = 1;
nodes = (
"446 24 OFFCURVE",
"266 216 OFFCURVE",
"266 540 CURVE SMOOTH",
"266 864 OFFCURVE",
"446 1056 OFFCURVE",
"698 1056 CURVE SMOOTH",
"946 1056 OFFCURVE",
"1122 864 OFFCURVE",
"1122 540 CURVE SMOOTH",
"1122 216 OFFCURVE",
"946 24 OFFCURVE",
"698 24 CURVE SMOOTH"
);
}
);
width = 1290;
}
);
leftKerningGroup = b;
rightKerningGroup = o;
rightMetricsKey = o;
unicode = 0062;
},
{
glyphname = c;
lastChange = "2020-05-19 09:37:20 +0000";
layers = (
{
layerId = "CA54B7DC-FBBB-40FE-ACF3-AABDD76D6A7B";
paths = (
{
closed = 1;
nodes = (
"658 1076 LINE",
"922 1076 OFFCURVE",
"1024 898 OFFCURVE",
"1024 776 CURVE SMOOTH",
"1024 742 OFFCURVE",
"1016 726 OFFCURVE",
"1016 708 CURVE SMOOTH",
"1016 684 OFFCURVE",
"1024 670 OFFCURVE",
"1042 670 CURVE SMOOTH",
"1068 670 OFFCURVE",
"1076 700 OFFCURVE",
"1076 742 CURVE SMOOTH",
"1076 936 OFFCURVE",
"944 1116 OFFCURVE",
"658 1116 CURVE"
);
},
{
closed = 1;
nodes = (
"1052 362 LINE",
"1028 222 OFFCURVE",
"914 24 OFFCURVE",
"658 24 CURVE SMOOTH",
"394 24 OFFCURVE",
"210 222 OFFCURVE",
"210 550 CURVE SMOOTH",
"210 878 OFFCURVE",
"394 1076 OFFCURVE",
"658 1076 CURVE",
"658 1116 LINE",
"368 1116 OFFCURVE",
"160 910 OFFCURVE",
"160 550 CURVE SMOOTH",
"160 190 OFFCURVE",
"368 -16 OFFCURVE",
"658 -16 CURVE SMOOTH",
"940 -16 OFFCURVE",
"1066 190 OFFCURVE",
"1094 354 CURVE"
);
}
);
width = 1250;
},
{
layerId = "1E61A082-F045-49A7-AB52-DD1B03FD9B54";
paths = (
{
closed = 1;
nodes = (
"618 1056 LINE",
"882 1056 OFFCURVE",
"978 869 OFFCURVE",
"978 740 CURVE SMOOTH",
"978 706 OFFCURVE",
"970 690 OFFCURVE",
"970 672 CURVE SMOOTH",
"970 648 OFFCURVE",
"978 634 OFFCURVE",
"996 634 CURVE SMOOTH",
"1022 634 OFFCURVE",
"1030 664 OFFCURVE",
"1030 706 CURVE SMOOTH",
"1030 908 OFFCURVE",
"904 1096 OFFCURVE",
"618 1096 CURVE"
);
},
{
closed = 1;
nodes = (
"1006 384 LINE",
"986 235 OFFCURVE",
"878 24 OFFCURVE",
"618 24 CURVE SMOOTH",
"354 24 OFFCURVE",
"170 218 OFFCURVE",
"170 540 CURVE SMOOTH",
"170 862 OFFCURVE",
"354 1056 OFFCURVE",
"618 1056 CURVE",
"618 1096 LINE",
"328 1096 OFFCURVE",
"120 894 OFFCURVE",
"120 540 CURVE SMOOTH",
"120 186 OFFCURVE",
"328 -16 OFFCURVE",
"618 -16 CURVE SMOOTH",
"904 -16 OFFCURVE",
"1024 202 OFFCURVE",
"1048 376 CURVE"
);
}
);
width = 1168;
}
);
leftKerningGroup = o;
leftMetricsKey = o;
rightKerningGroup = o;
unicode = 0063;
},
{
glyphname = d;
lastChange = "2020-05-19 09:36:58 +0000";
layers = (
{
layerId = "CA54B7DC-FBBB-40FE-ACF3-AABDD76D6A7B";
paths = (
{
closed = 1;
nodes = (
"1108 0 LINE",
"1108 1520 LINE",
"1060 1520 LINE",
"1060 746 LINE",
"1090 550 LINE",
"1064 334 LINE",
"1064 0 LINE"
);
},
{
closed = 1;
nodes = (
"880 1520 LINE",
"880 1480 LINE",
"1108 1480 LINE",
"1108 1520 LINE"
);
},
{
closed = 1;
nodes = (
"926 -16 OFFCURVE",
"1104 198 OFFCURVE",
"1104 550 CURVE SMOOTH",
"1104 902 OFFCURVE",
"926 1116 OFFCURVE",
"632 1116 CURVE SMOOTH",
"358 1116 OFFCURVE",
"160 902 OFFCURVE",
"160 550 CURVE SMOOTH",
"160 198 OFFCURVE",
"358 -16 OFFCURVE",
"632 -16 CURVE SMOOTH"
);
},
{
closed = 1;
nodes = (
"384 24 OFFCURVE",
"208 220 OFFCURVE",
"208 550 CURVE SMOOTH",
"208 880 OFFCURVE",
"384 1076 OFFCURVE",
"632 1076 CURVE SMOOTH",
"884 1076 OFFCURVE",
"1064 880 OFFCURVE",
"1064 550 CURVE SMOOTH",
"1064 220 OFFCURVE",
"884 24 OFFCURVE",
"632 24 CURVE SMOOTH"
);
},
{
closed = 1;
nodes = (
"1308 0 LINE",
"1308 40 LINE",
"1064 40 LINE",
"1064 0 LINE"
);
}
);
width = 1408;
},
{
layerId = "1E61A082-F045-49A7-AB52-DD1B03FD9B54";
paths = (
{
closed = 1;
nodes = (
"1068 0 LINE",
"1068 1480 LINE",
"1020 1480 LINE",
"1020 736 LINE",
"1050 540 LINE",
"1024 324 LINE",
"1024 0 LINE"
);
},
{
closed = 1;
nodes = (
"840 1480 LINE",
"840 1440 LINE",
"1068 1440 LINE",
"1068 1480 LINE"
);
},
{
closed = 1;
nodes = (
"886 -16 OFFCURVE",
"1064 194 OFFCURVE",
"1064 540 CURVE SMOOTH",
"1064 886 OFFCURVE",
"886 1096 OFFCURVE",
"592 1096 CURVE SMOOTH",
"318 1096 OFFCURVE",
"120 886 OFFCURVE",
"120 540 CURVE SMOOTH",
"120 194 OFFCURVE",
"318 -16 OFFCURVE",
"592 -16 CURVE SMOOTH"
);
},
{
closed = 1;
nodes = (
"344 24 OFFCURVE",
"168 216 OFFCURVE",
"168 540 CURVE SMOOTH",
"168 864 OFFCURVE",
"344 1056 OFFCURVE",
"592 1056 CURVE SMOOTH",
"844 1056 OFFCURVE",
"1024 864 OFFCURVE",
"1024 540 CURVE SMOOTH",
"1024 216 OFFCURVE",
"844 24 OFFCURVE",
"592 24 CURVE SMOOTH"
);
},
{
closed = 1;
nodes = (
"1268 0 LINE",
"1268 40 LINE",
"1024 40 LINE",
"1024 0 LINE"
);
}
);
width = 1322;
}
);
leftKerningGroup = o;
leftMetricsKey = o;
rightKerningGroup = l;
rightMetricsKey = l;
unicode = 0064;
},
{
glyphname = e;
lastChange = "2020-05-19 09:36:58 +0000";
layers = (
{
layerId = "CA54B7DC-FBBB-40FE-ACF3-AABDD76D6A7B";
paths = (
{
closed = 1;
nodes = (
"1058 346 LINE",
"1026 218 OFFCURVE",
"918 26 OFFCURVE",
"654 26 CURVE SMOOTH",
"390 26 OFFCURVE",
"210 222 OFFCURVE",
"210 550 CURVE SMOOTH",
"210 878 OFFCURVE",
"390 1076 OFFCURVE",
"654 1076 CURVE",
"654 1116 LINE",
"366 1116 OFFCURVE",
"160 910 OFFCURVE",
"160 550 CURVE SMOOTH",
"160 190 OFFCURVE",
"366 -16 OFFCURVE",
"654 -16 CURVE SMOOTH",
"942 -16 OFFCURVE",
"1068 190 OFFCURVE",
"1100 336 CURVE"
);
},
{
closed = 1;
nodes = (
"1104 616 LINE",
"1104 910 OFFCURVE",
"940 1116 OFFCURVE",
"654 1116 CURVE",
"654 1076 LINE",
"916 1076 OFFCURVE",
"1048 882 OFFCURVE",
"1060 640 CURVE"
);
},
{
closed = 1;
nodes = (
"194 600 LINE",
"1104 600 LINE",
"1104 616 LINE",
"1060 640 LINE",
"194 640 LINE"
);
}
);
width = 1264;
},
{
layerId = "1E61A082-F045-49A7-AB52-DD1B03FD9B54";
paths = (
{
closed = 1;
nodes = (
"1018 366 LINE",
"986 230 OFFCURVE",
"878 26 OFFCURVE",
"614 26 CURVE SMOOTH",
"350 26 OFFCURVE",
"170 218 OFFCURVE",
"170 540 CURVE SMOOTH",
"170 862 OFFCURVE",
"350 1056 OFFCURVE",
"614 1056 CURVE",
"614 1096 LINE",
"326 1096 OFFCURVE",
"120 894 OFFCURVE",
"120 540 CURVE SMOOTH",
"120 186 OFFCURVE",
"326 -16 OFFCURVE",
"614 -16 CURVE SMOOTH",
"902 -16 OFFCURVE",
"1028 202 OFFCURVE",
"1060 356 CURVE"
);
},
{
closed = 1;
nodes = (
"1064 606 LINE",
"1064 894 OFFCURVE",
"900 1096 OFFCURVE",
"614 1096 CURVE",
"614 1056 LINE",
"876 1056 OFFCURVE",
"1008 866 OFFCURVE",
"1020 630 CURVE"
);
},
{
closed = 1;
nodes = (
"154 590 LINE",
"1064 590 LINE",
"1064 606 LINE",
"1020 630 LINE",
"154 630 LINE"
);
}
);
width = 1184;
}
);
leftKerningGroup = o;
leftMetricsKey = o;
rightKerningGroup = o;
rightMetricsKey = o;
unicode = 0065;
},
{
glyphname = f;
lastChange = "2020-05-19 09:41:10 +0000";
layers = (
{
layerId = "CA54B7DC-FBBB-40FE-ACF3-AABDD76D6A7B";
paths = (
{
closed = 1;
nodes = (
"36 1060 LINE",
"764 1060 LINE",
"764 1100 LINE",
"36 1100 LINE"
);
},
{
closed = 1;
nodes = (
"336 0 LINE",
"384 0 LINE",
"384 1150 LINE",
"336 1146 LINE"
);
},
{
closed = 1;
nodes = (
"116 0 LINE",
"664 0 LINE",
"664 40 LINE",
"116 40 LINE"
);
},
{
closed = 1;
nodes = (
"940 1506 OFFCURVE",
"848 1580 OFFCURVE",
"704 1580 CURVE SMOOTH",
"468 1580 OFFCURVE",
"336 1432 OFFCURVE",
"336 1146 CURVE",
"384 1150 LINE",
"384 1412 OFFCURVE",
"498 1540 OFFCURVE",
"704 1540 CURVE SMOOTH",
"820 1540 OFFCURVE",
"890 1484 OFFCURVE",
"896 1408 CURVE SMOOTH",
"900 1350 OFFCURVE",
"868 1340 OFFCURVE",
"868 1302 CURVE SMOOTH",
"868 1284 OFFCURVE",
"878 1274 OFFCURVE",
"894 1274 CURVE SMOOTH",
"926 1274 OFFCURVE",
"946 1328 OFFCURVE",
"944 1390 CURVE SMOOTH"
);
}
);
width = 828;
},
{
layerId = "1E61A082-F045-49A7-AB52-DD1B03FD9B54";
paths = (
{
closed = 1;
nodes = (
"10 1040 LINE",
"738 1040 LINE",
"738 1080 LINE",
"10 1080 LINE"
);
},
{
closed = 1;
nodes = (
"310 0 LINE",
"358 0 LINE",
"358 1100 LINE",
"310 1096 LINE"
);
},
{
closed = 1;
nodes = (
"90 0 LINE",
"638 0 LINE",
"638 40 LINE",
"90 40 LINE"
);
},
{
closed = 1;
nodes = (
"914 1470 OFFCURVE",
"825 1540 OFFCURVE",
"686 1540 CURVE SMOOTH",
"445 1540 OFFCURVE",
"310 1389 OFFCURVE",
"310 1096 CURVE",
"358 1100 LINE",
"358 1369 OFFCURVE",
"475 1500 OFFCURVE",
"686 1500 CURVE SMOOTH",
"797 1500 OFFCURVE",
"864 1448 OFFCURVE",
"870 1378 CURVE SMOOTH",
"875 1320 OFFCURVE",
"842 1310 OFFCURVE",
"842 1272 CURVE SMOOTH",
"842 1254 OFFCURVE",
"852 1244 OFFCURVE",
"868 1244 CURVE SMOOTH",
"900 1244 OFFCURVE",
"920 1298 OFFCURVE",
"918 1360 CURVE SMOOTH"
);
}
);
width = 784;
}
);
leftKerningGroup = f;
rightKerningGroup = f;
unicode = 0066;
},
{
glyphname = g;
lastChange = "2020-05-19 09:40:06 +0000";
layers = (
{
layerId = "CA54B7DC-FBBB-40FE-ACF3-AABDD76D6A7B";
paths = (
{
closed = 1;
nodes = (
"848 368 OFFCURVE",
"1012 514 OFFCURVE",
"1012 738 CURVE SMOOTH",
"1012 918 OFFCURVE",
"910 1026 OFFCURVE",
"786 1068 CURVE",
"628 1108 LINE",
"384 1108 OFFCURVE",
"220 962 OFFCURVE",
"220 738 CURVE SMOOTH",
"220 514 OFFCURVE",
"384 368 OFFCURVE",
"616 368 CURVE SMOOTH"
);
},
{
closed = 1;
nodes = (
"414 408 OFFCURVE",
"268 538 OFFCURVE",
"268 738 CURVE SMOOTH",
"268 938 OFFCURVE",
"414 1068 OFFCURVE",
"616 1068 CURVE SMOOTH",
"818 1068 OFFCURVE",
"964 938 OFFCURVE",
"964 738 CURVE SMOOTH",
"964 538 OFFCURVE",
"818 408 OFFCURVE",
"616 408 CURVE SMOOTH"
);
},
{
closed = 1;
nodes = (
"220 514 OFFCURVE",
"110 442 OFFCURVE",
"110 306 CURVE SMOOTH",
"110 182 OFFCURVE",
"208 100 OFFCURVE",
"356 100 CURVE SMOOTH",
"928 100 LINE SMOOTH",
"1056 100 OFFCURVE",
"1110 46 OFFCURVE",
"1110 -50 CURVE SMOOTH",
"1110 -206 OFFCURVE",
"972 -360 OFFCURVE",
"618 -360 CURVE SMOOTH",
"350 -360 OFFCURVE",
"214 -260 OFFCURVE",
"214 -108 CURVE SMOOTH",
"214 8 OFFCURVE",
"304 76 OFFCURVE",
"412 100 CURVE",
"404 134 LINE",
"270 108 OFFCURVE",
"166 26 OFFCURVE",
"166 -108 CURVE SMOOTH",
"166 -286 OFFCURVE",
"326 -400 OFFCURVE",
"618 -400 CURVE SMOOTH",
"1008 -400 OFFCURVE",
"1156 -228 OFFCURVE",
"1156 -46 CURVE SMOOTH",
"1156 72 OFFCURVE",
"1084 140 OFFCURVE",
"930 140 CURVE SMOOTH",
"360 140 LINE SMOOTH",
"238 140 OFFCURVE",
"158 210 OFFCURVE",
"158 306 CURVE SMOOTH",
"158 414 OFFCURVE",
"232 468 OFFCURVE",
"332 478 CURVE",
"328 518 LINE"
);
},
{
closed = 1;
nodes = (
"786 1068 LINE",
"1180 1068 LINE",
"1180 1108 LINE",
"628 1108 LINE"
);
}
);
width = 1280;
},
{
layerId = "1E61A082-F045-49A7-AB52-DD1B03FD9B54";
paths = (
{
closed = 1;
nodes = (
"798 360 OFFCURVE",
"962 503 OFFCURVE",
"962 724 CURVE SMOOTH",
"962 901 OFFCURVE",
"863 1007 OFFCURVE",
"742 1048 CURVE",
"578 1088 LINE",
"334 1088 OFFCURVE",
"170 945 OFFCURVE",
"170 724 CURVE SMOOTH",
"170 503 OFFCURVE",
"334 360 OFFCURVE",
"566 360 CURVE SMOOTH"
);
},
{
closed = 1;
nodes = (
"364 400 OFFCURVE",
"218 527 OFFCURVE",
"218 724 CURVE SMOOTH",
"218 921 OFFCURVE",
"364 1048 OFFCURVE",
"566 1048 CURVE SMOOTH",
"768 1048 OFFCURVE",
"914 921 OFFCURVE",
"914 724 CURVE SMOOTH",
"914 527 OFFCURVE",
"768 400 OFFCURVE",
"566 400 CURVE SMOOTH"
);
},
{
closed = 1;
nodes = (
"170 502 OFFCURVE",
"60 432 OFFCURVE",
"60 300 CURVE SMOOTH",
"60 180 OFFCURVE",
"158 100 OFFCURVE",
"306 100 CURVE SMOOTH",
"878 100 LINE SMOOTH",
"1006 100 OFFCURVE",
"1060 46 OFFCURVE",
"1060 -50 CURVE SMOOTH",
"1060 -206 OFFCURVE",
"922 -360 OFFCURVE",
"568 -360 CURVE SMOOTH",
"300 -360 OFFCURVE",
"164 -260 OFFCURVE",
"164 -108 CURVE SMOOTH",
"164 8 OFFCURVE",
"254 76 OFFCURVE",
"362 100 CURVE",
"354 134 LINE",
"220 108 OFFCURVE",
"116 26 OFFCURVE",
"116 -108 CURVE SMOOTH",
"116 -286 OFFCURVE",
"276 -400 OFFCURVE",
"568 -400 CURVE SMOOTH",
"958 -400 OFFCURVE",
"1106 -228 OFFCURVE",
"1106 -46 CURVE SMOOTH",
"1106 72 OFFCURVE",
"1034 140 OFFCURVE",
"880 140 CURVE SMOOTH",
"310 140 LINE SMOOTH",
"188 140 OFFCURVE",
"108 207 OFFCURVE",
"108 300 CURVE SMOOTH",
"108 404 OFFCURVE",
"182 456 OFFCURVE",
"282 466 CURVE",
"278 506 LINE"
);
},
{
closed = 1;
nodes = (
"742 1048 LINE",
"1130 1048 LINE",
"1130 1088 LINE",
"578 1088 LINE"
);
}
);
width = 1194;
}
);
leftKerningGroup = g;
rightKerningGroup = g;
unicode = 0067;
},
{
glyphname = h;
lastChange = "2020-05-19 09:43:04 +0000";
layers = (
{
layerId = "CA54B7DC-FBBB-40FE-ACF3-AABDD76D6A7B";
paths = (
{
closed = 1;
nodes = (
"300 0 LINE",
"348 0 LINE",
"348 1520 LINE",
"300 1520 LINE"
);
},
{
closed = 1;
nodes = (
"80 0 LINE",
"568 0 LINE",
"568 40 LINE",
"80 40 LINE"
);
},
{
closed = 1;
nodes = (
"110 1480 LINE",
"348 1480 LINE",
"348 1520 LINE",
"110 1520 LINE"
);
},
{
closed = 1;
nodes = (
"348 552 LINE",
"348 914 OFFCURVE",
"552 1076 OFFCURVE",
"770 1076 CURVE SMOOTH",
"932 1076 OFFCURVE",
"1032 1002 OFFCURVE",
"1032 824 CURVE SMOOTH",
"1032 0 LINE",
"1080 0 LINE",
"1080 824 LINE SMOOTH",
"1080 1034 OFFCURVE",
"952 1116 OFFCURVE",
"772 1116 CURVE SMOOTH",
"534 1116 OFFCURVE",
"310 954 OFFCURVE",
"310 552 CURVE"
);
},
{
closed = 1;
nodes = (
"812 0 LINE",
"1270 0 LINE",
"1270 40 LINE",
"812 40 LINE"
);
}
);
width = 1350;
},
{
layerId = "1E61A082-F045-49A7-AB52-DD1B03FD9B54";
paths = (
{
closed = 1;
nodes = (
"272 0 LINE",
"320 0 LINE",
"320 1480 LINE",
"272 1480 LINE"
);
},
{
closed = 1;
nodes = (
"52 0 LINE",
"540 0 LINE",
"540 40 LINE",
"52 40 LINE"
);
},
{
closed = 1;
nodes = (
"82 1440 LINE",
"320 1440 LINE",
"320 1480 LINE",
"82 1480 LINE"
);
},
{
closed = 1;
nodes = (
"320 552 LINE",
"320 900 OFFCURVE",
"524 1056 OFFCURVE",
"742 1056 CURVE SMOOTH",
"904 1056 OFFCURVE",
"1004 985 OFFCURVE",
"1004 814 CURVE SMOOTH",
"1004 0 LINE",
"1052 0 LINE",
"1052 814 LINE SMOOTH",
"1052 1017 OFFCURVE",
"924 1096 OFFCURVE",
"744 1096 CURVE SMOOTH",
"506 1096 OFFCURVE",
"282 940 OFFCURVE",
"282 552 CURVE"
);
},
{
closed = 1;
nodes = (
"784 0 LINE",
"1242 0 LINE",
"1242 40 LINE",
"784 40 LINE"
);
}
);
width = 1294;
}
);
leftKerningGroup = l;
leftMetricsKey = l;
rightKerningGroup = n;
rightMetricsKey = n;
unicode = 0068;
},
{
glyphname = idotless;
lastChange = "2020-05-19 09:36:58 +0000";
layers = (
{
anchors = (
{
name = top;
position = "{320, 1100}";
}
);
layerId = "CA54B7DC-FBBB-40FE-ACF3-AABDD76D6A7B";
paths = (
{
closed = 1;
nodes = (
"300 0 LINE",
"348 0 LINE",
"348 1100 LINE",
"300 1100 LINE"
);
},
{
closed = 1;
nodes = (
"110 1060 LINE",
"348 1060 LINE",
"348 1100 LINE",
"110 1100 LINE"
);
},
{
closed = 1;
nodes = (
"80 0 LINE",
"548 0 LINE",
"548 40 LINE",
"80 40 LINE"
);
}
);
width = 648;
},
{
anchors = (
{
name = top;
position = "{292, 1080}";
}
);
layerId = "1E61A082-F045-49A7-AB52-DD1B03FD9B54";
paths = (
{
closed = 1;
nodes = (
"272 0 LINE",
"320 0 LINE",
"320 1080 LINE",
"272 1080 LINE"
);
},
{
closed = 1;
nodes = (
"82 1040 LINE",
"320 1040 LINE",
"320 1080 LINE",
"82 1080 LINE"
);
},
{
closed = 1;
nodes = (
"52 0 LINE",
"520 0 LINE",
"520 40 LINE",
"52 40 LINE"
);
}
);
width = 574;
}
);
leftKerningGroup = n;
leftMetricsKey = l;
rightKerningGroup = l;
rightMetricsKey = l;
unicode = 0131;
},
{
glyphname = jdotless;
lastChange = "2020-05-19 09:15:24 +0000";
layers = (
{
anchors = (
{
name = top;
position = "{320, 1100}";
}
);
layerId = "CA54B7DC-FBBB-40FE-ACF3-AABDD76D6A7B";
paths = (
{
closed = 1;
nodes = (
"300 -2 LINE",
"348 2 LINE",
"348 1100 LINE",
"300 1100 LINE"
);
},
{
closed = 1;
nodes = (
"110 1060 LINE",
"348 1060 LINE",
"348 1100 LINE",
"110 1100 LINE"
);
},
{
closed = 1;
nodes = (
"-120 -332 OFFCURVE",
"-38 -400 OFFCURVE",
"78 -400 CURVE SMOOTH",
"254 -400 OFFCURVE",
"348 -270 OFFCURVE",
"348 2 CURVE",
"300 -2 LINE",
"300 -250 OFFCURVE",
"220 -360 OFFCURVE",
"78 -360 CURVE SMOOTH",
"-8 -360 OFFCURVE",
"-74 -310 OFFCURVE",
"-74 -240 CURVE SMOOTH",
"-74 -188 OFFCURVE",
"-50 -178 OFFCURVE",
"-50 -142 CURVE SMOOTH",
"-50 -124 OFFCURVE",
"-60 -114 OFFCURVE",
"-76 -114 CURVE SMOOTH",
"-108 -114 OFFCURVE",
"-126 -164 OFFCURVE",
"-124 -220 CURVE SMOOTH"
);
}
);
width = 520;
},
{
anchors = (
{
name = top;
position = "{320, 1080}";
}
);
layerId = "1E61A082-F045-49A7-AB52-DD1B03FD9B54";
paths = (
{
closed = 1;
nodes = (
"300 -2 LINE",
"348 2 LINE",
"348 1080 LINE",
"300 1080 LINE"
);
},
{
closed = 1;
nodes = (
"110 1040 LINE",
"348 1040 LINE",
"348 1080 LINE",
"110 1080 LINE"
);
},
{
closed = 1;
nodes = (
"-120 -332 OFFCURVE",
"-38 -400 OFFCURVE",
"78 -400 CURVE SMOOTH",
"254 -400 OFFCURVE",
"348 -270 OFFCURVE",
"348 2 CURVE",
"300 -2 LINE",
"300 -250 OFFCURVE",
"220 -360 OFFCURVE",
"78 -360 CURVE SMOOTH",
"-8 -360 OFFCURVE",
"-74 -310 OFFCURVE",
"-74 -240 CURVE SMOOTH",
"-74 -188 OFFCURVE",
"-50 -178 OFFCURVE",
"-50 -142 CURVE SMOOTH",
"-50 -124 OFFCURVE",
"-60 -114 OFFCURVE",
"-76 -114 CURVE SMOOTH",
"-108 -114 OFFCURVE",
"-126 -164 OFFCURVE",
"-124 -220 CURVE SMOOTH"
);
}
);
width = 520;
}
);
leftKerningGroup = p;
rightKerningGroup = q;
unicode = 0237;
},
{
glyphname = k;
lastChange = "2020-05-19 09:39:46 +0000";
layers = (
{
layerId = "CA54B7DC-FBBB-40FE-ACF3-AABDD76D6A7B";
paths = (
{
closed = 1;
nodes = (
"1198 1100 LINE",
"802 1100 LINE",
"802 1060 LINE",
"1198 1060 LINE"
);
},
{
closed = 1;
nodes = (
"1242 40 LINE",
"776 40 LINE",
"776 0 LINE",
"1242 0 LINE"
);
},
{
closed = 1;
nodes = (
"332 396 LINE",
"1058 1060 LINE",
"992 1060 LINE",
"304 430 LINE"
);
},
{
closed = 1;
nodes = (
"300 0 LINE",
"348 0 LINE",
"348 1520 LINE",
"300 1520 LINE"
);
},
{
closed = 1;
nodes = (
"110 1480 LINE",
"348 1480 LINE",
"348 1520 LINE",
"110 1520 LINE"
);
},
{
closed = 1;
nodes = (
"80 0 LINE",
"568 0 LINE",
"568 40 LINE",
"80 40 LINE"
);
},
{
closed = 1;
nodes = (
"524 594 LINE",
"1038 40 LINE",
"1102 40 LINE",
"558 626 LINE"
);
}
);
width = 1302;
},
{
layerId = "1E61A082-F045-49A7-AB52-DD1B03FD9B54";
paths = (
{
closed = 1;
nodes = (
"1170 1080 LINE",
"774 1080 LINE",
"774 1040 LINE",
"1170 1040 LINE"
);
},
{
closed = 1;
nodes = (
"1214 40 LINE",
"748 40 LINE",
"748 0 LINE",
"1214 0 LINE"
);
},
{
closed = 1;
nodes = (
"304 386 LINE",
"1030 1040 LINE",
"964 1040 LINE",
"276 420 LINE"
);
},
{
closed = 1;
nodes = (
"272 0 LINE",
"320 0 LINE",
"320 1480 LINE",
"272 1480 LINE"
);
},
{
closed = 1;
nodes = (
"82 1440 LINE",
"320 1440 LINE",
"320 1480 LINE",
"82 1480 LINE"
);
},
{
closed = 1;
nodes = (
"52 0 LINE",
"540 0 LINE",
"540 40 LINE",
"52 40 LINE"
);
},
{
closed = 1;
nodes = (
"496 584 LINE",
"1010 40 LINE",
"1074 40 LINE",
"530 616 LINE"
);
}
);
width = 1252;
}
);
leftKerningGroup = l;
leftMetricsKey = l;
rightKerningGroup = k;
unicode = 006B;
},
{
glyphname = l;
lastChange = "2020-05-19 09:36:53 +0000";
layers = (
{
layerId = "CA54B7DC-FBBB-40FE-ACF3-AABDD76D6A7B";
paths = (
{
closed = 1;
nodes = (
"300 0 LINE",
"348 0 LINE",
"348 1520 LINE",
"300 1520 LINE"
);
},
{
closed = 1;
nodes = (
"110 1480 LINE",
"348 1480 LINE",
"348 1520 LINE",
"110 1520 LINE"
);
},
{
closed = 1;
nodes = (
"80 0 LINE",
"548 0 LINE",
"548 40 LINE",
"80 40 LINE"
);
}
);
width = 648;
},
{
layerId = "1E61A082-F045-49A7-AB52-DD1B03FD9B54";
paths = (
{
closed = 1;
nodes = (
"272 0 LINE",
"320 0 LINE",
"320 1480 LINE",
"272 1480 LINE"
);
},
{
closed = 1;
nodes = (
"82 1440 LINE",
"320 1440 LINE",
"320 1480 LINE",
"82 1480 LINE"
);
},
{
closed = 1;
nodes = (
"52 0 LINE",
"520 0 LINE",
"520 40 LINE",
"52 40 LINE"
);
}
);
width = 574;
}
);
leftKerningGroup = l;
rightKerningGroup = l;
unicode = 006C;
},
{
glyphname = m;
lastChange = "2020-05-19 09:43:04 +0000";
layers = (
{
layerId = "CA54B7DC-FBBB-40FE-ACF3-AABDD76D6A7B";
paths = (
{
closed = 1;
nodes = (
"340 0 LINE",
"388 0 LINE",
"388 734 LINE",
"384 734 LINE",
"384 1100 LINE",
"340 1100 LINE"
);
},
{
closed = 1;
nodes = (
"120 0 LINE",
"588 0 LINE",
"588 40 LINE",
"120 40 LINE"
);
},
{
closed = 1;
nodes = (
"150 1060 LINE",
"384 1060 LINE",
"384 1100 LINE",
"150 1100 LINE"
);
},
{
closed = 1;
nodes = (
"388 674 LINE",
"388 952 OFFCURVE",
"542 1076 OFFCURVE",
"704 1076 CURVE SMOOTH",
"820 1076 OFFCURVE",
"890 1022 OFFCURVE",
"890 892 CURVE SMOOTH",
"890 0 LINE",
"938 0 LINE",
"938 892 LINE SMOOTH",
"938 1054 OFFCURVE",
"840 1116 OFFCURVE",
"706 1116 CURVE SMOOTH",
"518 1116 OFFCURVE",
"352 982 OFFCURVE",
"352 674 CURVE"
);
},
{
closed = 1;
nodes = (
"690 0 LINE",
"1138 0 LINE",
"1138 40 LINE",
"690 40 LINE"
);
},
{
closed = 1;
nodes = (
"938 674 LINE",
"938 952 OFFCURVE",
"1092 1076 OFFCURVE",
"1254 1076 CURVE SMOOTH",
"1370 1076 OFFCURVE",
"1440 1022 OFFCURVE",
"1440 892 CURVE SMOOTH",
"1440 0 LINE",
"1488 0 LINE",
"1488 892 LINE SMOOTH",
"1488 1054 OFFCURVE",
"1392 1116 OFFCURVE",
"1256 1116 CURVE SMOOTH",
"1068 1116 OFFCURVE",
"902 982 OFFCURVE",
"902 674 CURVE"
);
},
{
closed = 1;
nodes = (
"1240 0 LINE",
"1678 0 LINE",
"1678 40 LINE",
"1240 40 LINE"
);
}
);
width = 1758;
},
{
layerId = "1E61A082-F045-49A7-AB52-DD1B03FD9B54";
paths = (
{
closed = 1;
nodes = (
"286 0 LINE",
"334 0 LINE",
"334 724 LINE",
"330 724 LINE",
"330 1080 LINE",
"286 1080 LINE"
);
},
{
closed = 1;
nodes = (
"66 0 LINE",
"534 0 LINE",
"534 40 LINE",
"66 40 LINE"
);
},
{
closed = 1;
nodes = (
"96 1040 LINE",
"330 1040 LINE",
"330 1080 LINE",
"96 1080 LINE"
);
},
{
closed = 1;
nodes = (
"334 664 LINE",
"334 935 OFFCURVE",
"488 1056 OFFCURVE",
"650 1056 CURVE SMOOTH",
"766 1056 OFFCURVE",
"836 1005 OFFCURVE",
"836 882 CURVE SMOOTH",
"836 0 LINE",
"884 0 LINE",
"884 882 LINE SMOOTH",
"884 1037 OFFCURVE",
"786 1096 OFFCURVE",
"652 1096 CURVE SMOOTH",
"464 1096 OFFCURVE",
"298 965 OFFCURVE",
"298 664 CURVE"
);
},
{
closed = 1;
nodes = (
"636 0 LINE",
"1084 0 LINE",
"1084 40 LINE",
"636 40 LINE"
);
},
{
closed = 1;
nodes = (
"884 664 LINE",
"884 935 OFFCURVE",
"1038 1056 OFFCURVE",
"1200 1056 CURVE SMOOTH",
"1316 1056 OFFCURVE",
"1386 1005 OFFCURVE",
"1386 882 CURVE SMOOTH",
"1386 0 LINE",
"1434 0 LINE",
"1434 882 LINE SMOOTH",
"1434 1037 OFFCURVE",
"1338 1096 OFFCURVE",
"1202 1096 CURVE SMOOTH",
"1014 1096 OFFCURVE",
"848 965 OFFCURVE",
"848 664 CURVE"
);
},
{
closed = 1;
nodes = (
"1186 0 LINE",
"1624 0 LINE",
"1624 40 LINE",
"1186 40 LINE"
);
}
);
width = 1676;
}
);
leftKerningGroup = n;
leftMetricsKey = n;
rightKerningGroup = n;
rightMetricsKey = n;
unicode = 006D;
},
{
glyphname = n;
lastChange = "2020-05-19 09:42:54 +0000";
layers = (
{
layerId = "CA54B7DC-FBBB-40FE-ACF3-AABDD76D6A7B";
paths = (
{
closed = 1;
nodes = (
"340 0 LINE",
"388 0 LINE",
"388 710 LINE",
"384 710 LINE",
"384 1100 LINE",
"340 1100 LINE"
);
},
{
closed = 1;
nodes = (
"120 0 LINE",
"608 0 LINE",
"608 40 LINE",
"120 40 LINE"
);
},
{
closed = 1;
nodes = (
"150 1060 LINE",
"384 1060 LINE",
"384 1100 LINE",
"150 1100 LINE"
);
},
{
closed = 1;
nodes = (
"388 552 LINE",
"388 914 OFFCURVE",
"592 1076 OFFCURVE",
"810 1076 CURVE SMOOTH",
"972 1076 OFFCURVE",
"1072 1002 OFFCURVE",
"1072 824 CURVE SMOOTH",
"1072 0 LINE",
"1120 0 LINE",
"1120 824 LINE SMOOTH",
"1120 1034 OFFCURVE",
"992 1116 OFFCURVE",
"812 1116 CURVE SMOOTH",
"572 1116 OFFCURVE",
"350 954 OFFCURVE",
"350 552 CURVE"
);
},
{
closed = 1;
nodes = (
"852 0 LINE",
"1310 0 LINE",
"1310 40 LINE",
"852 40 LINE"
);
}
);
width = 1390;
},
{
layerId = "1E61A082-F045-49A7-AB52-DD1B03FD9B54";
paths = (
{
closed = 1;
nodes = (
"286 0 LINE",
"334 0 LINE",
"334 700 LINE",
"330 700 LINE",
"330 1080 LINE",
"286 1080 LINE"
);
},
{
closed = 1;
nodes = (
"66 0 LINE",
"554 0 LINE",
"554 40 LINE",
"66 40 LINE"
);
},
{
closed = 1;
nodes = (
"96 1040 LINE",
"330 1040 LINE",
"330 1080 LINE",
"96 1080 LINE"
);
},
{
closed = 1;
nodes = (
"334 542 LINE",
"334 897 OFFCURVE",
"538 1056 OFFCURVE",
"756 1056 CURVE SMOOTH",
"918 1056 OFFCURVE",
"1018 985 OFFCURVE",
"1018 814 CURVE SMOOTH",
"1018 0 LINE",
"1066 0 LINE",
"1066 814 LINE SMOOTH",
"1066 1017 OFFCURVE",
"938 1096 OFFCURVE",
"758 1096 CURVE SMOOTH",
"518 1096 OFFCURVE",
"296 937 OFFCURVE",
"296 542 CURVE"
);
},
{
closed = 1;
nodes = (
"798 0 LINE",
"1256 0 LINE",
"1256 40 LINE",
"798 40 LINE"
);
}
);
width = 1308;
}
);
leftKerningGroup = n;
rightKerningGroup = n;
unicode = 006E;
},
{
glyphname = o;
lastChange = "2020-05-19 09:35:29 +0000";
layers = (
{
layerId = "CA54B7DC-FBBB-40FE-ACF3-AABDD76D6A7B";
paths = (
{
closed = 1;
nodes = (
"968 -16 OFFCURVE",
"1180 190 OFFCURVE",
"1180 550 CURVE SMOOTH",
"1180 910 OFFCURVE",
"968 1116 OFFCURVE",
"670 1116 CURVE SMOOTH",
"372 1116 OFFCURVE",
"160 910 OFFCURVE",
"160 550 CURVE SMOOTH",
"160 190 OFFCURVE",
"372 -16 OFFCURVE",
"670 -16 CURVE SMOOTH"
);
},
{
closed = 1;
nodes = (
"398 24 OFFCURVE",
"210 222 OFFCURVE",
"210 550 CURVE SMOOTH",
"210 878 OFFCURVE",
"398 1076 OFFCURVE",
"670 1076 CURVE SMOOTH",
"942 1076 OFFCURVE",
"1130 878 OFFCURVE",
"1130 550 CURVE SMOOTH",
"1130 222 OFFCURVE",
"942 24 OFFCURVE",
"670 24 CURVE SMOOTH"
);
}
);
width = 1340;
},
{
layerId = "1E61A082-F045-49A7-AB52-DD1B03FD9B54";
paths = (
{
closed = 1;
nodes = (
"928 -16 OFFCURVE",
"1140 186 OFFCURVE",
"1140 540 CURVE SMOOTH",
"1140 894 OFFCURVE",
"928 1096 OFFCURVE",
"630 1096 CURVE SMOOTH",
"332 1096 OFFCURVE",
"120 894 OFFCURVE",
"120 540 CURVE SMOOTH",
"120 186 OFFCURVE",
"332 -16 OFFCURVE",
"630 -16 CURVE SMOOTH"
);
},
{
closed = 1;
nodes = (
"358 24 OFFCURVE",
"170 218 OFFCURVE",
"170 540 CURVE SMOOTH",
"170 862 OFFCURVE",
"358 1056 OFFCURVE",
"630 1056 CURVE SMOOTH",
"902 1056 OFFCURVE",
"1090 862 OFFCURVE",
"1090 540 CURVE SMOOTH",
"1090 218 OFFCURVE",
"902 24 OFFCURVE",
"630 24 CURVE SMOOTH"
);
}
);
width = 1260;
}
);
leftKerningGroup = o;
rightKerningGroup = o;
unicode = 006F;
},
{
glyphname = p;
lastChange = "2020-05-19 09:42:51 +0000";
layers = (
{
layerId = "CA54B7DC-FBBB-40FE-ACF3-AABDD76D6A7B";
paths = (
{
closed = 1;
nodes = (
"632 -340 LINE",
"104 -340 LINE",
"104 -380 LINE",
"632 -380 LINE"
);
},
{
closed = 1;
nodes = (
"352 334 LINE",
"322 550 LINE",
"348 746 LINE",
"348 1100 LINE",
"304 1100 LINE",
"304 -380 LINE",
"352 -380 LINE"
);
},
{
closed = 1;
nodes = (
"124 1060 LINE",
"348 1060 LINE",
"348 1100 LINE",
"124 1100 LINE"
);
},
{
closed = 1;
nodes = (
"1054 -16 OFFCURVE",
"1252 198 OFFCURVE",
"1252 550 CURVE SMOOTH",
"1252 902 OFFCURVE",
"1054 1116 OFFCURVE",
"780 1116 CURVE SMOOTH",
"486 1116 OFFCURVE",
"308 902 OFFCURVE",
"308 550 CURVE SMOOTH",
"308 198 OFFCURVE",
"486 -16 OFFCURVE",
"780 -16 CURVE SMOOTH"
);
},
{
closed = 1;
nodes = (
"528 24 OFFCURVE",
"348 220 OFFCURVE",
"348 550 CURVE SMOOTH",
"348 880 OFFCURVE",
"528 1076 OFFCURVE",
"780 1076 CURVE SMOOTH",
"1028 1076 OFFCURVE",
"1204 880 OFFCURVE",
"1204 550 CURVE SMOOTH",
"1204 220 OFFCURVE",
"1028 24 OFFCURVE",
"780 24 CURVE SMOOTH"
);
}
);
width = 1412;
},
{
layerId = "1E61A082-F045-49A7-AB52-DD1B03FD9B54";
paths = (
{
closed = 1;
nodes = (
"586 -340 LINE",
"58 -340 LINE",
"58 -380 LINE",
"586 -380 LINE"
);
},
{
closed = 1;
nodes = (
"306 324 LINE",
"276 540 LINE",
"302 736 LINE",
"302 1080 LINE",
"258 1080 LINE",
"258 -380 LINE",
"306 -380 LINE"
);
},
{
closed = 1;
nodes = (
"78 1040 LINE",
"302 1040 LINE",
"302 1080 LINE",
"78 1080 LINE"
);
},
{
closed = 1;
nodes = (
"1008 -16 OFFCURVE",
"1206 194 OFFCURVE",
"1206 540 CURVE SMOOTH",
"1206 886 OFFCURVE",
"1008 1096 OFFCURVE",
"734 1096 CURVE SMOOTH",
"440 1096 OFFCURVE",
"262 886 OFFCURVE",
"262 540 CURVE SMOOTH",
"262 194 OFFCURVE",
"440 -16 OFFCURVE",
"734 -16 CURVE SMOOTH"
);
},
{
closed = 1;
nodes = (
"482 24 OFFCURVE",
"302 216 OFFCURVE",
"302 540 CURVE SMOOTH",
"302 864 OFFCURVE",
"482 1056 OFFCURVE",
"734 1056 CURVE SMOOTH",
"982 1056 OFFCURVE",
"1158 864 OFFCURVE",
"1158 540 CURVE SMOOTH",
"1158 216 OFFCURVE",
"982 24 OFFCURVE",
"734 24 CURVE SMOOTH"
);
}
);
width = 1326;
}
);
leftKerningGroup = p;
rightKerningGroup = o;
rightMetricsKey = o;
unicode = 0070;
},
{
glyphname = q;
lastChange = "2020-05-19 09:41:44 +0000";
layers = (
{
layerId = "CA54B7DC-FBBB-40FE-ACF3-AABDD76D6A7B";
paths = (
{
closed = 1;
nodes = (
"1308 -380 LINE",
"1308 -340 LINE",
"780 -340 LINE",
"780 -380 LINE"
);
},
{
closed = 1;
nodes = (
"1108 -380 LINE",
"1108 1100 LINE",
"1064 1100 LINE",
"1064 750 LINE",
"1090 550 LINE",
"1060 334 LINE",
"1060 -380 LINE"
);
},
{
closed = 1;
nodes = (
"926 -16 OFFCURVE",
"1104 198 OFFCURVE",
"1104 550 CURVE SMOOTH",
"1104 902 OFFCURVE",
"926 1116 OFFCURVE",
"632 1116 CURVE SMOOTH",
"358 1116 OFFCURVE",
"160 902 OFFCURVE",
"160 550 CURVE SMOOTH",
"160 198 OFFCURVE",
"358 -16 OFFCURVE",
"632 -16 CURVE SMOOTH"
);
},
{
closed = 1;
nodes = (
"384 24 OFFCURVE",
"208 220 OFFCURVE",
"208 550 CURVE SMOOTH",
"208 880 OFFCURVE",
"384 1076 OFFCURVE",
"632 1076 CURVE SMOOTH",
"884 1076 OFFCURVE",
"1064 880 OFFCURVE",
"1064 550 CURVE SMOOTH",
"1064 220 OFFCURVE",
"884 24 OFFCURVE",
"632 24 CURVE SMOOTH"
);
}
);
width = 1392;
},
{
layerId = "1E61A082-F045-49A7-AB52-DD1B03FD9B54";
paths = (
{
closed = 1;
nodes = (
"1268 -380 LINE",
"1268 -340 LINE",
"740 -340 LINE",
"740 -380 LINE"
);
},
{
closed = 1;
nodes = (
"1068 -380 LINE",
"1068 1080 LINE",
"1024 1080 LINE",
"1024 740 LINE",
"1050 540 LINE",
"1020 324 LINE",
"1020 -380 LINE"
);
},
{
closed = 1;
nodes = (
"886 -16 OFFCURVE",
"1064 194 OFFCURVE",
"1064 540 CURVE SMOOTH",
"1064 886 OFFCURVE",
"886 1096 OFFCURVE",
"592 1096 CURVE SMOOTH",
"318 1096 OFFCURVE",
"120 886 OFFCURVE",
"120 540 CURVE SMOOTH",
"120 194 OFFCURVE",
"318 -16 OFFCURVE",
"592 -16 CURVE SMOOTH"
);
},
{
closed = 1;
nodes = (
"344 24 OFFCURVE",
"168 216 OFFCURVE",
"168 540 CURVE SMOOTH",
"168 864 OFFCURVE",
"344 1056 OFFCURVE",
"592 1056 CURVE SMOOTH",
"844 1056 OFFCURVE",
"1024 864 OFFCURVE",
"1024 540 CURVE SMOOTH",
"1024 216 OFFCURVE",
"844 24 OFFCURVE",
"592 24 CURVE SMOOTH"
);
}
);
width = 1274;
}
);
leftKerningGroup = o;
leftMetricsKey = o;
rightKerningGroup = q;
unicode = 0071;
},
{
glyphname = r;
lastChange = "2020-05-19 09:40:27 +0000";
layers = (
{
layerId = "CA54B7DC-FBBB-40FE-ACF3-AABDD76D6A7B";
paths = (
{
closed = 1;
nodes = (
"388 620 LINE",
"388 914 OFFCURVE",
"554 1076 OFFCURVE",
"726 1076 CURVE SMOOTH",
"862 1076 OFFCURVE",
"930 1004 OFFCURVE",
"930 898 CURVE SMOOTH",
"930 830 OFFCURVE",
"906 798 OFFCURVE",
"906 760 CURVE SMOOTH",
"906 738 OFFCURVE",
"916 720 OFFCURVE",
"938 720 CURVE SMOOTH",
"974 720 OFFCURVE",
"988 772 OFFCURVE",
"988 844 CURVE SMOOTH",
"988 1022 OFFCURVE",
"896 1116 OFFCURVE",
"730 1116 CURVE SMOOTH",
"530 1116 OFFCURVE",
"356 962 OFFCURVE",
"356 620 CURVE"
);
},
{
closed = 1;
nodes = (
"340 0 LINE",
"388 0 LINE",
"388 750 LINE",
"380 750 LINE",
"380 1100 LINE",
"340 1100 LINE"
);
},
{
closed = 1;
nodes = (
"120 0 LINE",
"668 0 LINE",
"668 40 LINE",
"120 40 LINE"
);
},
{
closed = 1;
nodes = (
"150 1060 LINE",
"380 1060 LINE",
"380 1100 LINE",
"150 1100 LINE"
);
}
);
width = 1124;
},
{
layerId = "1E61A082-F045-49A7-AB52-DD1B03FD9B54";
paths = (
{
closed = 1;
nodes = (
"334 610 LINE",
"334 898 OFFCURVE",
"495 1056 OFFCURVE",
"662 1056 CURVE SMOOTH",
"805 1056 OFFCURVE",
"876 968 OFFCURVE",
"876 838 CURVE SMOOTH",
"876 770 OFFCURVE",
"852 738 OFFCURVE",
"852 700 CURVE SMOOTH",
"852 678 OFFCURVE",
"862 660 OFFCURVE",
"884 660 CURVE SMOOTH",
"920 660 OFFCURVE",
"934 712 OFFCURVE",
"934 784 CURVE SMOOTH",
"934 988 OFFCURVE",
"838 1096 OFFCURVE",
"666 1096 CURVE SMOOTH",
"471 1096 OFFCURVE",
"302 945 OFFCURVE",
"302 610 CURVE"
);
},
{
closed = 1;
nodes = (
"286 0 LINE",
"334 0 LINE",
"334 740 LINE",
"326 740 LINE",
"326 1080 LINE",
"286 1080 LINE"
);
},
{
closed = 1;
nodes = (
"66 0 LINE",
"614 0 LINE",
"614 40 LINE",
"66 40 LINE"
);
},
{
closed = 1;
nodes = (
"96 1040 LINE",
"326 1040 LINE",
"326 1080 LINE",
"96 1080 LINE"
);
}
);
width = 1026;
}
);
leftKerningGroup = n;
leftMetricsKey = n;
rightKerningGroup = r;
unicode = 0072;
},
{
glyphname = s;
lastChange = "2020-05-19 09:38:27 +0000";
layers = (
{
layerId = "CA54B7DC-FBBB-40FE-ACF3-AABDD76D6A7B";
paths = (
{
closed = 1;
nodes = (
"200 678 OFFCURVE",
"332 606 OFFCURVE",
"530 558 CURVE SMOOTH",
"672 524 LINE SMOOTH",
"826 488 OFFCURVE",
"968 424 OFFCURVE",
"968 266 CURVE SMOOTH",
"968 110 OFFCURVE",
"854 20 OFFCURVE",
"664 20 CURVE SMOOTH",
"480 20 OFFCURVE",
"314 104 OFFCURVE",
"244 330 CURVE",
"208 330 LINE",
"270 78 OFFCURVE",
"456 -20 OFFCURVE",
"668 -20 CURVE SMOOTH",
"878 -20 OFFCURVE",
"1016 86 OFFCURVE",
"1016 266 CURVE SMOOTH",
"1016 448 OFFCURVE",
"862 520 OFFCURVE",
"680 564 CURVE SMOOTH",
"540 598 LINE SMOOTH",
"378 638 OFFCURVE",
"248 692 OFFCURVE",
"248 850 CURVE SMOOTH",
"248 1000 OFFCURVE",
"360 1080 OFFCURVE",
"532 1080 CURVE SMOOTH",
"694 1080 OFFCURVE",
"872 1000 OFFCURVE",
"932 790 CURVE",
"968 790 LINE",
"914 1024 OFFCURVE",
"730 1120 OFFCURVE",
"532 1120 CURVE SMOOTH",
"332 1120 OFFCURVE",
"200 1020 OFFCURVE",
"200 850 CURVE SMOOTH"
);
},
{
closed = 1;
nodes = (
"932 1108 LINE",
"932 848 LINE",
"968 790 LINE",
"976 790 LINE",
"976 1108 LINE"
);
},
{
closed = 1;
nodes = (
"244 -8 LINE",
"244 260 LINE",
"208 330 LINE",
"200 330 LINE",
"200 -8 LINE"
);
}
);
width = 1164;
},
{
layerId = "1E61A082-F045-49A7-AB52-DD1B03FD9B54";
paths = (
{
closed = 1;
nodes = (
"168 664 OFFCURVE",
"300 595 OFFCURVE",
"498 548 CURVE SMOOTH",
"640 514 LINE SMOOTH",
"794 477 OFFCURVE",
"936 418 OFFCURVE",
"936 263 CURVE SMOOTH",
"936 110 OFFCURVE",
"822 24 OFFCURVE",
"632 24 CURVE SMOOTH",
"448 24 OFFCURVE",
"282 121 OFFCURVE",
"212 390 CURVE",
"176 390 LINE",
"238 95 OFFCURVE",
"424 -16 OFFCURVE",
"636 -16 CURVE SMOOTH",
"846 -16 OFFCURVE",
"984 86 OFFCURVE",
"984 263 CURVE SMOOTH",
"984 442 OFFCURVE",
"830 510 OFFCURVE",
"648 554 CURVE SMOOTH",
"508 588 LINE SMOOTH",
"346 627 OFFCURVE",
"216 678 OFFCURVE",
"216 833 CURVE SMOOTH",
"216 979 OFFCURVE",
"328 1056 OFFCURVE",
"500 1056 CURVE SMOOTH",
"662 1056 OFFCURVE",
"840 963 OFFCURVE",
"900 710 CURVE",
"936 710 LINE",
"882 986 OFFCURVE",
"698 1096 OFFCURVE",
"500 1096 CURVE SMOOTH",
"300 1096 OFFCURVE",
"168 1000 OFFCURVE",
"168 833 CURVE SMOOTH"
);
},
{
closed = 1;
nodes = (
"900 1080 LINE",
"900 768 LINE",
"936 710 LINE",
"944 710 LINE",
"944 1080 LINE"
);
},
{
closed = 1;
nodes = (
"212 0 LINE",
"212 320 LINE",
"176 390 LINE",
"168 390 LINE",
"168 0 LINE"
);
}
);
width = 1128;
}
);
leftKerningGroup = s;
rightKerningGroup = s;
unicode = 0073;
},
{
glyphname = t;
lastChange = "2020-05-19 09:39:37 +0000";
layers = (
{
layerId = "CA54B7DC-FBBB-40FE-ACF3-AABDD76D6A7B";
paths = (
{
closed = 1;
nodes = (
"368 1240 LINE SMOOTH",
"368 1128 OFFCURVE",
"360 1100 OFFCURVE",
"248 1100 CURVE SMOOTH",
"20 1100 LINE",
"20 1060 LINE",
"360 1060 LINE",
"360 312 LINE SMOOTH",
"360 92 OFFCURVE",
"458 -20 OFFCURVE",
"642 -20 CURVE SMOOTH",
"826 -20 OFFCURVE",
"924 94 OFFCURVE",
"924 312 CURVE SMOOTH",
"924 520 LINE",
"880 520 LINE",
"880 312 LINE SMOOTH",
"880 126 OFFCURVE",
"802 24 OFFCURVE",
"644 24 CURVE SMOOTH",
"486 24 OFFCURVE",
"408 124 OFFCURVE",
"408 312 CURVE SMOOTH",
"408 1440 LINE",
"368 1440 LINE"
);
},
{
closed = 1;
nodes = (
"408 1060 LINE",
"1004 1060 LINE",
"1004 1100 LINE",
"408 1100 LINE"
);
}
);
width = 1088;
},
{
layerId = "1E61A082-F045-49A7-AB52-DD1B03FD9B54";
paths = (
{
closed = 1;
nodes = (
"360 1220 LINE SMOOTH",
"360 1108 OFFCURVE",
"352 1080 OFFCURVE",
"240 1080 CURVE SMOOTH",
"12 1080 LINE",
"12 1040 LINE",
"352 1040 LINE",
"352 312 LINE SMOOTH",
"352 92 OFFCURVE",
"450 -20 OFFCURVE",
"634 -20 CURVE SMOOTH",
"818 -20 OFFCURVE",
"916 94 OFFCURVE",
"916 312 CURVE SMOOTH",
"916 560 LINE",
"872 560 LINE",
"872 312 LINE SMOOTH",
"872 126 OFFCURVE",
"794 24 OFFCURVE",
"636 24 CURVE SMOOTH",
"478 24 OFFCURVE",
"400 124 OFFCURVE",
"400 312 CURVE SMOOTH",
"400 1420 LINE",
"360 1420 LINE"
);
},
{
closed = 1;
nodes = (
"400 1040 LINE",
"996 1040 LINE",
"996 1080 LINE",
"400 1080 LINE"
);
}
);
width = 1044;
}
);
leftKerningGroup = t;
rightKerningGroup = t;
unicode = 0074;
},
{
glyphname = u;
lastChange = "2020-05-19 09:42:58 +0000";
layers = (
{
layerId = "CA54B7DC-FBBB-40FE-ACF3-AABDD76D6A7B";
paths = (
{
closed = 1;
nodes = (
"1060 1100 LINE",
"1012 1100 LINE",
"1012 390 LINE",
"1020 390 LINE",
"1020 0 LINE",
"1060 0 LINE"
);
},
{
closed = 1;
nodes = (
"1060 1100 LINE",
"792 1100 LINE",
"792 1060 LINE",
"1060 1060 LINE"
);
},
{
closed = 1;
nodes = (
"1260 40 LINE",
"1020 40 LINE",
"1020 0 LINE",
"1260 0 LINE"
);
},
{
closed = 1;
nodes = (
"1012 548 LINE",
"1012 186 OFFCURVE",
"808 22 OFFCURVE",
"586 24 CURVE SMOOTH",
"416 26 OFFCURVE",
"316 100 OFFCURVE",
"316 278 CURVE",
"316 1102 LINE",
"268 1102 LINE",
"268 278 LINE",
"268 68 OFFCURVE",
"396 -14 OFFCURVE",
"584 -16 CURVE SMOOTH",
"828 -18 OFFCURVE",
"1050 146 OFFCURVE",
"1050 548 CURVE"
);
},
{
closed = 1;
nodes = (
"316 1102 LINE",
"78 1102 LINE",
"78 1062 LINE",
"316 1062 LINE"
);
}
);
width = 1360;
},
{
layerId = "1E61A082-F045-49A7-AB52-DD1B03FD9B54";
paths = (
{
closed = 1;
nodes = (
"1034 1080 LINE",
"986 1080 LINE",
"986 380 LINE",
"994 380 LINE",
"994 0 LINE",
"1034 0 LINE"
);
},
{
closed = 1;
nodes = (
"1034 1080 LINE",
"766 1080 LINE",
"766 1040 LINE",
"1034 1040 LINE"
);
},
{
closed = 1;
nodes = (
"1234 40 LINE",
"994 40 LINE",
"994 0 LINE",
"1234 0 LINE"
);
},
{
closed = 1;
nodes = (
"986 538 LINE",
"986 183 OFFCURVE",
"782 22 OFFCURVE",
"560 24 CURVE SMOOTH",
"390 26 OFFCURVE",
"290 97 OFFCURVE",
"290 268 CURVE",
"290 1082 LINE",
"242 1082 LINE",
"242 268 LINE",
"242 65 OFFCURVE",
"370 -14 OFFCURVE",
"558 -16 CURVE SMOOTH",
"802 -18 OFFCURVE",
"1024 143 OFFCURVE",
"1024 538 CURVE"
);
},
{
closed = 1;
nodes = (
"290 1082 LINE",
"52 1082 LINE",
"52 1042 LINE",
"290 1042 LINE"
);
}
);
width = 1288;
}
);
leftKerningGroup = u;
rightKerningGroup = u;
rightMetricsKey = l;
unicode = 0075;
},
{
glyphname = v;
lastChange = "2020-05-19 09:39:09 +0000";
layers = (
{
layerId = "CA54B7DC-FBBB-40FE-ACF3-AABDD76D6A7B";
paths = (
{
closed = 1;
nodes = (
"1020 1060 LINE",
"974 1060 LINE",
"594 50 LINE",
"592 0 LINE",
"620 0 LINE"
);
},
{
closed = 1;
nodes = (
"1160 1100 LINE",
"754 1100 LINE",
"754 1060 LINE",
"1160 1060 LINE"
);
},
{
closed = 1;
nodes = (
"604 0 LINE",
"606 50 LINE",
"226 1060 LINE",
"176 1060 LINE",
"576 0 LINE"
);
},
{
closed = 1;
nodes = (
"466 1060 LINE",
"466 1100 LINE",
"36 1100 LINE",
"36 1060 LINE"
);
}
);
width = 1196;
},
{
layerId = "1E61A082-F045-49A7-AB52-DD1B03FD9B54";
paths = (
{
closed = 1;
nodes = (
"994 1040 LINE",
"948 1040 LINE",
"568 50 LINE",
"566 0 LINE",
"594 0 LINE"
);
},
{
closed = 1;
nodes = (
"1134 1080 LINE",
"728 1080 LINE",
"728 1040 LINE",
"1134 1040 LINE"
);
},
{
closed = 1;
nodes = (
"578 0 LINE",
"580 50 LINE",
"200 1040 LINE",
"150 1040 LINE",
"550 0 LINE"
);
},
{
closed = 1;
nodes = (
"440 1040 LINE",
"440 1080 LINE",
"10 1080 LINE",
"10 1040 LINE"
);
}
);
width = 1144;
}
);
leftKerningGroup = v;
rightKerningGroup = v;
unicode = 0076;
},
{
glyphname = w;
lastChange = "2020-05-19 09:39:11 +0000";
layers = (
{
layerId = "CA54B7DC-FBBB-40FE-ACF3-AABDD76D6A7B";
paths = (
{
closed = 1;
nodes = (
"802 868 LINE",
"780 942 LINE",
"514 56 LINE",
"512 0 LINE",
"540 0 LINE"
);
},
{
closed = 1;
nodes = (
"524 0 LINE",
"526 56 LINE",
"224 1060 LINE",
"176 1060 LINE",
"496 0 LINE"
);
},
{
closed = 1;
nodes = (
"464 1060 LINE",
"464 1100 LINE",
"36 1100 LINE",
"36 1060 LINE"
);
},
{
closed = 1;
nodes = (
"1420 1060 LINE",
"1376 1060 LINE",
"1074 56 LINE",
"1072 0 LINE",
"1100 0 LINE"
);
},
{
closed = 1;
nodes = (
"1560 1100 LINE",
"1156 1100 LINE",
"1156 1060 LINE",
"1560 1060 LINE"
);
},
{
closed = 1;
nodes = (
"1084 0 LINE",
"1086 56 LINE",
"784 1060 LINE",
"736 1060 LINE",
"1056 0 LINE"
);
},
{
closed = 1;
nodes = (
"1024 1060 LINE",
"1024 1100 LINE",
"596 1100 LINE",
"596 1060 LINE"
);
}
);
width = 1596;
},
{
layerId = "1E61A082-F045-49A7-AB52-DD1B03FD9B54";
paths = (
{
closed = 1;
nodes = (
"776 852 LINE",
"754 922 LINE",
"488 56 LINE",
"486 0 LINE",
"514 0 LINE"
);
},
{
closed = 1;
nodes = (
"498 0 LINE",
"500 56 LINE",
"198 1040 LINE",
"150 1040 LINE",
"470 0 LINE"
);
},
{
closed = 1;
nodes = (
"438 1040 LINE",
"438 1080 LINE",
"10 1080 LINE",
"10 1040 LINE"
);
},
{
closed = 1;
nodes = (
"1394 1040 LINE",
"1350 1040 LINE",
"1048 56 LINE",
"1046 0 LINE",
"1074 0 LINE"
);
},
{
closed = 1;
nodes = (
"1534 1080 LINE",
"1130 1080 LINE",
"1130 1040 LINE",
"1534 1040 LINE"
);
},
{
closed = 1;
nodes = (
"1058 0 LINE",
"1060 56 LINE",
"758 1040 LINE",
"710 1040 LINE",
"1030 0 LINE"
);
},
{
closed = 1;
nodes = (
"998 1040 LINE",
"998 1080 LINE",
"570 1080 LINE",
"570 1040 LINE"
);
}
);
width = 1544;
}
);
leftKerningGroup = w;
leftMetricsKey = v;
rightKerningGroup = w;
rightMetricsKey = v;
unicode = 0077;
},
{
glyphname = x;
lastChange = "2020-05-19 09:38:54 +0000";
layers = (
{
layerId = "CA54B7DC-FBBB-40FE-ACF3-AABDD76D6A7B";
paths = (
{
closed = 1;
nodes = (
"632 530 LINE",
"1026 1060 LINE",
"972 1060 LINE",
"620 586 LINE"
);
},
{
closed = 1;
nodes = (
"1166 1100 LINE",
"782 1100 LINE",
"782 1060 LINE",
"1166 1060 LINE"
);
},
{
closed = 1;
nodes = (
"616 586 LINE",
"212 40 LINE",
"266 40 LINE",
"628 530 LINE"
);
},
{
closed = 1;
nodes = (
"456 40 LINE",
"72 40 LINE",
"72 0 LINE",
"456 0 LINE"
);
},
{
closed = 1;
nodes = (
"280 1060 LINE",
"226 1060 LINE",
"620 530 LINE",
"632 586 LINE"
);
},
{
closed = 1;
nodes = (
"470 1060 LINE",
"470 1100 LINE",
"86 1100 LINE",
"86 1060 LINE"
);
},
{
closed = 1;
nodes = (
"986 40 LINE",
"1040 40 LINE",
"636 586 LINE",
"624 530 LINE"
);
},
{
closed = 1;
nodes = (
"1180 0 LINE",
"1180 40 LINE",
"796 40 LINE",
"796 0 LINE"
);
},
{
closed = 1;
nodes = (
"638 532 OFFCURVE",
"646 540 OFFCURVE",
"646 552 CURVE SMOOTH",
"646 564 OFFCURVE",
"638 572 OFFCURVE",
"626 572 CURVE SMOOTH",
"614 572 OFFCURVE",
"606 564 OFFCURVE",
"606 552 CURVE SMOOTH",
"606 540 OFFCURVE",
"614 532 OFFCURVE",
"626 532 CURVE SMOOTH"
);
}
);
width = 1252;
},
{
layerId = "1E61A082-F045-49A7-AB52-DD1B03FD9B54";
paths = (
{
closed = 1;
nodes = (
"602 520 LINE",
"995 1040 LINE",
"941 1040 LINE",
"590 576 LINE"
);
},
{
closed = 1;
nodes = (
"1135 1080 LINE",
"751 1080 LINE",
"751 1040 LINE",
"1135 1040 LINE"
);
},
{
closed = 1;
nodes = (
"586 576 LINE",
"182 40 LINE",
"236 40 LINE",
"598 520 LINE"
);
},
{
closed = 1;
nodes = (
"426 40 LINE",
"42 40 LINE",
"42 0 LINE",
"426 0 LINE"
);
},
{
closed = 1;
nodes = (
"251 1040 LINE",
"197 1040 LINE",
"590 520 LINE",
"602 576 LINE"
);
},
{
closed = 1;
nodes = (
"441 1040 LINE",
"441 1080 LINE",
"57 1080 LINE",
"57 1040 LINE"
);
},
{
closed = 1;
nodes = (
"956 40 LINE",
"1010 40 LINE",
"606 576 LINE",
"594 520 LINE"
);
},
{
closed = 1;
nodes = (
"1150 0 LINE",
"1150 40 LINE",
"766 40 LINE",
"766 0 LINE"
);
},
{
closed = 1;
nodes = (
"608 522 OFFCURVE",
"616 530 OFFCURVE",
"616 542 CURVE SMOOTH",
"616 554 OFFCURVE",
"608 562 OFFCURVE",
"596 562 CURVE SMOOTH",
"584 562 OFFCURVE",
"576 554 OFFCURVE",
"576 542 CURVE SMOOTH",
"576 530 OFFCURVE",
"584 522 OFFCURVE",
"596 522 CURVE SMOOTH"
);
}
);
width = 1192;
}
);
leftKerningGroup = x;
rightKerningGroup = x;
unicode = 0078;
},
{
glyphname = y;
lastChange = "2020-05-19 09:39:11 +0000";
layers = (
{
layerId = "CA54B7DC-FBBB-40FE-ACF3-AABDD76D6A7B";
paths = (
{
closed = 1;
nodes = (
"1160 1100 LINE",
"754 1100 LINE",
"754 1060 LINE",
"1160 1060 LINE"
);
},
{
closed = 1;
nodes = (
"604 0 LINE",
"606 50 LINE",
"226 1060 LINE",
"176 1060 LINE",
"590 -36 LINE"
);
},
{
closed = 1;
nodes = (
"466 1060 LINE",
"466 1100 LINE",
"36 1100 LINE",
"36 1060 LINE"
);
},
{
closed = 1;
nodes = (
"68 -324 OFFCURVE",
"154 -400 OFFCURVE",
"294 -400 CURVE SMOOTH",
"424 -400 OFFCURVE",
"498 -322 OFFCURVE",
"548 -188 CURVE SMOOTH",
"1020 1060 LINE",
"974 1060 LINE",
"594 50 LINE",
"580 16 LINE",
"508 -176 LINE SMOOTH",
"464 -292 OFFCURVE",
"398 -360 OFFCURVE",
"294 -360 CURVE SMOOTH",
"184 -360 OFFCURVE",
"114 -300 OFFCURVE",
"110 -208 CURVE SMOOTH",
"108 -150 OFFCURVE",
"138 -140 OFFCURVE",
"138 -102 CURVE SMOOTH",
"138 -84 OFFCURVE",
"128 -74 OFFCURVE",
"112 -74 CURVE SMOOTH",
"82 -74 OFFCURVE",
"62 -118 OFFCURVE",
"64 -186 CURVE SMOOTH"
);
}
);
width = 1196;
},
{
layerId = "1E61A082-F045-49A7-AB52-DD1B03FD9B54";
paths = (
{
closed = 1;
nodes = (
"1134 1080 LINE",
"728 1080 LINE",
"728 1040 LINE",
"1134 1040 LINE"
);
},
{
closed = 1;
nodes = (
"578 0 LINE",
"580 50 LINE",
"200 1040 LINE",
"150 1040 LINE",
"564 -36 LINE"
);
},
{
closed = 1;
nodes = (
"440 1040 LINE",
"440 1080 LINE",
"10 1080 LINE",
"10 1040 LINE"
);
},
{
closed = 1;
nodes = (
"42 -324 OFFCURVE",
"128 -400 OFFCURVE",
"268 -400 CURVE SMOOTH",
"398 -400 OFFCURVE",
"471 -321 OFFCURVE",
"522 -187 CURVE SMOOTH",
"994 1040 LINE",
"948 1040 LINE",
"568 50 LINE",
"554 16 LINE",
"482 -176 LINE SMOOTH",
"438 -292 OFFCURVE",
"372 -360 OFFCURVE",
"268 -360 CURVE SMOOTH",
"158 -360 OFFCURVE",
"88 -300 OFFCURVE",
"84 -208 CURVE SMOOTH",
"82 -150 OFFCURVE",
"112 -140 OFFCURVE",
"112 -102 CURVE SMOOTH",
"112 -84 OFFCURVE",
"102 -74 OFFCURVE",
"86 -74 CURVE SMOOTH",
"56 -74 OFFCURVE",
"36 -118 OFFCURVE",
"38 -186 CURVE SMOOTH"
);
}
);
width = 1144;
}
);
leftKerningGroup = v;
leftMetricsKey = v;
rightKerningGroup = v;
rightMetricsKey = v;
unicode = 0079;
},
{
glyphname = z;
lastChange = "2020-05-19 09:23:59 +0000";
layers = (
{
layerId = "CA54B7DC-FBBB-40FE-ACF3-AABDD76D6A7B";
paths = (
{
closed = 1;
nodes = (
"144 1060 LINE",
"892 1060 LINE",
"952 1064 LINE",
"952 1100 LINE",
"144 1100 LINE"
);
},
{
closed = 1;
nodes = (
"104 0 LINE",
"956 0 LINE",
"956 40 LINE",
"164 40 LINE",
"104 36 LINE"
);
},
{
closed = 1;
nodes = (
"164 40 LINE",
"952 1064 LINE",
"892 1060 LINE",
"104 36 LINE"
);
},
{
closed = 1;
nodes = (
"956 40 LINE",
"956 370 LINE",
"916 370 LINE",
"916 180 LINE SMOOTH",
"916 68 OFFCURVE",
"908 40 OFFCURVE",
"796 40 CURVE"
);
},
{
closed = 1;
nodes = (
"144 1060 LINE",
"144 738 LINE",
"184 738 LINE",
"184 920 LINE SMOOTH",
"184 1032 OFFCURVE",
"192 1060 OFFCURVE",
"304 1060 CURVE"
);
}
);
width = 1076;
},
{
layerId = "1E61A082-F045-49A7-AB52-DD1B03FD9B54";
paths = (
{
closed = 1;
nodes = (
"144 1040 LINE",
"892 1040 LINE",
"952 1044 LINE",
"952 1080 LINE",
"144 1080 LINE"
);
},
{
closed = 1;
nodes = (
"104 0 LINE",
"956 0 LINE",
"956 40 LINE",
"164 40 LINE",
"104 36 LINE"
);
},
{
closed = 1;
nodes = (
"164 40 LINE",
"952 1044 LINE",
"892 1040 LINE",
"104 36 LINE"
);
},
{
closed = 1;
nodes = (
"956 40 LINE",
"956 390 LINE",
"916 390 LINE",
"916 180 LINE SMOOTH",
"916 68 OFFCURVE",
"908 40 OFFCURVE",
"796 40 CURVE"
);
},
{
closed = 1;
nodes = (
"144 1040 LINE",
"144 710 LINE",
"184 710 LINE",
"184 900 LINE SMOOTH",
"184 1012 OFFCURVE",
"192 1040 OFFCURVE",
"304 1040 CURVE"
);
}
);
width = 1076;
}
);
leftKerningGroup = z;
rightKerningGroup = z;
unicode = 007A;
},
{
glyphname = idotless.ss01;
lastChange = "2020-05-19 09:23:18 +0000";
layers = (
{
anchors = (
{
name = top;
position = "{294, 1100}";
}
);
layerId = "CA54B7DC-FBBB-40FE-ACF3-AABDD76D6A7B";
paths = (
{
closed = 1;
nodes = (
"270 176 LINE",
"318 176 LINE",
"318 1100 LINE",
"270 1100 LINE"
);
},
{
closed = 1;
nodes = (
"40 1060 LINE",
"318 1060 LINE",
"318 1100 LINE",
"40 1100 LINE"
);
},
{
closed = 1;
nodes = (
"270 176 LINE",
"270 54 OFFCURVE",
"338 -16 OFFCURVE",
"448 -16 CURVE SMOOTH",
"556 -16 OFFCURVE",
"622 54 OFFCURVE",
"622 176 CURVE SMOOTH",
"622 324 LINE",
"578 324 LINE",
"578 176 LINE SMOOTH",
"578 86 OFFCURVE",
"534 24 OFFCURVE",
"448 24 CURVE SMOOTH",
"362 24 OFFCURVE",
"318 86 OFFCURVE",
"318 176 CURVE"
);
}
);
width = 706;
},
{
anchors = (
{
name = top;
position = "{294, 1080}";
}
);
layerId = "1E61A082-F045-49A7-AB52-DD1B03FD9B54";
paths = (
{
closed = 1;
nodes = (
"270 176 LINE",
"318 176 LINE",
"318 1080 LINE",
"270 1080 LINE"
);
},
{
closed = 1;
nodes = (
"40 1040 LINE",
"318 1040 LINE",
"318 1080 LINE",
"40 1080 LINE"
);
},
{
closed = 1;
nodes = (
"270 176 LINE",
"270 54 OFFCURVE",
"338 -16 OFFCURVE",
"448 -16 CURVE SMOOTH",
"556 -16 OFFCURVE",
"622 54 OFFCURVE",
"622 176 CURVE SMOOTH",
"622 370 LINE",
"578 370 LINE",
"578 176 LINE SMOOTH",
"578 86 OFFCURVE",
"534 24 OFFCURVE",
"448 24 CURVE SMOOTH",
"362 24 OFFCURVE",
"318 86 OFFCURVE",
"318 176 CURVE"
);
}
);
width = 706;
}
);
leftMetricsKey = l.ss01;
rightMetricsKey = l.ss01;
},
{
glyphname = l.ss01;
lastChange = "2020-05-19 09:23:24 +0000";
layers = (
{
layerId = "CA54B7DC-FBBB-40FE-ACF3-AABDD76D6A7B";
paths = (
{
closed = 1;
nodes = (
"270 176 LINE",
"318 176 LINE",
"318 1520 LINE",
"270 1520 LINE"
);
},
{
closed = 1;
nodes = (
"40 1480 LINE",
"318 1480 LINE",
"318 1520 LINE",
"40 1520 LINE"
);
},
{
closed = 1;
nodes = (
"270 176 LINE",
"270 54 OFFCURVE",
"338 -16 OFFCURVE",
"448 -16 CURVE SMOOTH",
"556 -16 OFFCURVE",
"622 54 OFFCURVE",
"622 176 CURVE SMOOTH",
"622 324 LINE",
"578 324 LINE",
"578 176 LINE SMOOTH",
"578 86 OFFCURVE",
"534 24 OFFCURVE",
"448 24 CURVE SMOOTH",
"362 24 OFFCURVE",
"318 86 OFFCURVE",
"318 176 CURVE"
);
}
);
width = 706;
},
{
layerId = "1E61A082-F045-49A7-AB52-DD1B03FD9B54";
paths = (
{
closed = 1;
nodes = (
"270 176 LINE",
"318 176 LINE",
"318 1480 LINE",
"270 1480 LINE"
);
},
{
closed = 1;
nodes = (
"40 1440 LINE",
"318 1440 LINE",
"318 1480 LINE",
"40 1480 LINE"
);
},
{
closed = 1;
nodes = (
"270 176 LINE",
"270 54 OFFCURVE",
"338 -16 OFFCURVE",
"448 -16 CURVE SMOOTH",
"556 -16 OFFCURVE",
"622 54 OFFCURVE",
"622 176 CURVE SMOOTH",
"622 370 LINE",
"578 370 LINE",
"578 176 LINE SMOOTH",
"578 86 OFFCURVE",
"534 24 OFFCURVE",
"448 24 CURVE SMOOTH",
"362 24 OFFCURVE",
"318 86 OFFCURVE",
"318 176 CURVE"
);
}
);
width = 706;
}
);
},
{
glyphname = f_f.liga;
lastChange = "2020-05-19 09:43:04 +0000";
layers = (
{
layerId = "CA54B7DC-FBBB-40FE-ACF3-AABDD76D6A7B";
paths = (
{
closed = 1;
nodes = (
"36 1060 LINE",
"764 1060 LINE",
"764 1100 LINE",
"36 1100 LINE"
);
},
{
closed = 1;
nodes = (
"336 0 LINE",
"384 0 LINE",
"384 1150 LINE",
"336 1146 LINE"
);
},
{
closed = 1;
nodes = (
"116 0 LINE",
"664 0 LINE",
"664 40 LINE",
"116 40 LINE"
);
},
{
closed = 1;
nodes = (
"764 1060 LINE",
"1492 1060 LINE",
"1492 1100 LINE",
"764 1100 LINE"
);
},
{
closed = 1;
nodes = (
"1064 0 LINE",
"1112 0 LINE",
"1112 1150 LINE",
"1064 1146 LINE"
);
},
{
closed = 1;
nodes = (
"844 0 LINE",
"1392 0 LINE",
"1392 40 LINE",
"844 40 LINE"
);
},
{
closed = 1;
nodes = (
"1668 1506 OFFCURVE",
"1576 1580 OFFCURVE",
"1432 1580 CURVE SMOOTH",
"1196 1580 OFFCURVE",
"1064 1432 OFFCURVE",
"1064 1146 CURVE",
"1112 1150 LINE",
"1112 1412 OFFCURVE",
"1226 1540 OFFCURVE",
"1432 1540 CURVE SMOOTH",
"1548 1540 OFFCURVE",
"1618 1484 OFFCURVE",
"1624 1408 CURVE SMOOTH",
"1628 1350 OFFCURVE",
"1596 1340 OFFCURVE",
"1596 1302 CURVE SMOOTH",
"1596 1284 OFFCURVE",
"1606 1274 OFFCURVE",
"1622 1274 CURVE SMOOTH",
"1654 1274 OFFCURVE",
"1674 1328 OFFCURVE",
"1672 1390 CURVE SMOOTH"
);
},
{
closed = 1;
nodes = (
"904 1486 OFFCURVE",
"826 1560 OFFCURVE",
"688 1560 CURVE SMOOTH",
"462 1560 OFFCURVE",
"336 1418 OFFCURVE",
"336 1146 CURVE",
"384 1150 LINE",
"384 1398 OFFCURVE",
"492 1520 OFFCURVE",
"688 1520 CURVE SMOOTH",
"798 1520 OFFCURVE",
"854 1464 OFFCURVE",
"860 1388 CURVE SMOOTH",
"864 1330 OFFCURVE",
"832 1320 OFFCURVE",
"832 1282 CURVE SMOOTH",
"832 1264 OFFCURVE",
"842 1254 OFFCURVE",
"858 1254 CURVE SMOOTH",
"890 1254 OFFCURVE",
"910 1308 OFFCURVE",
"908 1370 CURVE SMOOTH"
);
}
);
width = 1556;
},
{
layerId = "1E61A082-F045-49A7-AB52-DD1B03FD9B54";
paths = (
{
closed = 1;
nodes = (
"10 1040 LINE",
"738 1040 LINE",
"738 1080 LINE",
"10 1080 LINE"
);
},
{
closed = 1;
nodes = (
"310 0 LINE",
"358 0 LINE",
"358 1110 LINE",
"310 1106 LINE"
);
},
{
closed = 1;
nodes = (
"90 0 LINE",
"638 0 LINE",
"638 40 LINE",
"90 40 LINE"
);
},
{
closed = 1;
nodes = (
"738 1040 LINE",
"1466 1040 LINE",
"1466 1080 LINE",
"738 1080 LINE"
);
},
{
closed = 1;
nodes = (
"1038 0 LINE",
"1086 0 LINE",
"1086 1110 LINE",
"1038 1106 LINE"
);
},
{
closed = 1;
nodes = (
"818 0 LINE",
"1366 0 LINE",
"1366 40 LINE",
"818 40 LINE"
);
},
{
closed = 1;
nodes = (
"1642 1466 OFFCURVE",
"1550 1540 OFFCURVE",
"1406 1540 CURVE SMOOTH",
"1170 1540 OFFCURVE",
"1038 1392 OFFCURVE",
"1038 1106 CURVE",
"1086 1110 LINE",
"1086 1372 OFFCURVE",
"1200 1500 OFFCURVE",
"1406 1500 CURVE SMOOTH",
"1522 1500 OFFCURVE",
"1591 1444 OFFCURVE",
"1598 1368 CURVE SMOOTH",
"1603 1310 OFFCURVE",
"1570 1300 OFFCURVE",
"1570 1262 CURVE SMOOTH",
"1570 1244 OFFCURVE",
"1580 1234 OFFCURVE",
"1596 1234 CURVE SMOOTH",
"1628 1234 OFFCURVE",
"1648 1288 OFFCURVE",
"1646 1350 CURVE SMOOTH"
);
},
{
closed = 1;
nodes = (
"878 1446 OFFCURVE",
"800 1520 OFFCURVE",
"662 1520 CURVE SMOOTH",
"436 1520 OFFCURVE",
"310 1378 OFFCURVE",
"310 1106 CURVE",
"358 1110 LINE",
"358 1358 OFFCURVE",
"466 1480 OFFCURVE",
"662 1480 CURVE SMOOTH",
"772 1480 OFFCURVE",
"827 1424 OFFCURVE",
"834 1348 CURVE SMOOTH",
"839 1290 OFFCURVE",
"806 1280 OFFCURVE",
"806 1242 CURVE SMOOTH",
"806 1224 OFFCURVE",
"816 1214 OFFCURVE",
"832 1214 CURVE SMOOTH",
"864 1214 OFFCURVE",
"884 1268 OFFCURVE",
"882 1330 CURVE SMOOTH"
);
}
);
width = 1512;
}
);
leftMetricsKey = f;
rightMetricsKey = f;
},
{
glyphname = f_f_i.liga;
lastChange = "2020-05-19 09:43:04 +0000";
layers = (
{
layerId = "CA54B7DC-FBBB-40FE-ACF3-AABDD76D6A7B";
paths = (
{
closed = 1;
nodes = (
"36 1060 LINE",
"764 1060 LINE",
"764 1100 LINE",
"36 1100 LINE"
);
},
{
closed = 1;
nodes = (
"336 0 LINE",
"384 0 LINE",
"384 1150 LINE",
"336 1146 LINE"
);
},
{
closed = 1;
nodes = (
"116 0 LINE",
"664 0 LINE",
"664 40 LINE",
"116 40 LINE"
);
},
{
closed = 1;
nodes = (
"904 1486 OFFCURVE",
"826 1560 OFFCURVE",
"688 1560 CURVE SMOOTH",
"462 1560 OFFCURVE",
"336 1418 OFFCURVE",
"336 1146 CURVE",
"384 1150 LINE",
"384 1398 OFFCURVE",
"492 1520 OFFCURVE",
"688 1520 CURVE SMOOTH",
"798 1520 OFFCURVE",
"854 1464 OFFCURVE",
"860 1388 CURVE SMOOTH",
"864 1330 OFFCURVE",
"832 1320 OFFCURVE",
"832 1282 CURVE SMOOTH",
"832 1264 OFFCURVE",
"842 1254 OFFCURVE",
"858 1254 CURVE SMOOTH",
"890 1254 OFFCURVE",
"910 1308 OFFCURVE",
"908 1370 CURVE SMOOTH"
);
},
{
closed = 1;
nodes = (
"764 1060 LINE",
"1840 1060 LINE",
"1840 1100 LINE",
"764 1100 LINE"
);
},
{
closed = 1;
nodes = (
"1064 0 LINE",
"1112 0 LINE",
"1112 1130 LINE",
"1064 1126 LINE"
);
},
{
closed = 1;
nodes = (
"844 0 LINE",
"1392 0 LINE",
"1392 40 LINE",
"844 40 LINE"
);
},
{
closed = 1;
nodes = (
"1848 1490 OFFCURVE",
"1724 1580 OFFCURVE",
"1532 1580 CURVE SMOOTH",
"1232 1580 OFFCURVE",
"1064 1418 OFFCURVE",
"1064 1126 CURVE",
"1112 1130 LINE",
"1112 1398 OFFCURVE",
"1262 1540 OFFCURVE",
"1532 1540 CURVE SMOOTH",
"1696 1540 OFFCURVE",
"1798 1468 OFFCURVE",
"1804 1368 CURVE SMOOTH",
"1808 1310 OFFCURVE",
"1776 1300 OFFCURVE",
"1776 1262 CURVE SMOOTH",
"1776 1244 OFFCURVE",
"1786 1234 OFFCURVE",
"1802 1234 CURVE SMOOTH",
"1834 1234 OFFCURVE",
"1854 1288 OFFCURVE",
"1852 1350 CURVE SMOOTH"
);
},
{
closed = 1;
nodes = (
"1792 0 LINE",
"1840 0 LINE",
"1840 1100 LINE",
"1792 1100 LINE"
);
},
{
closed = 1;
nodes = (
"1572 0 LINE",
"2040 0 LINE",
"2040 40 LINE",
"1572 40 LINE"
);
}
);
width = 2140;
},
{
layerId = "1E61A082-F045-49A7-AB52-DD1B03FD9B54";
paths = (
{
closed = 1;
nodes = (
"10 1040 LINE",
"738 1040 LINE",
"738 1080 LINE",
"10 1080 LINE"
);
},
{
closed = 1;
nodes = (
"310 0 LINE",
"358 0 LINE",
"358 1110 LINE",
"310 1106 LINE"
);
},
{
closed = 1;
nodes = (
"90 0 LINE",
"638 0 LINE",
"638 40 LINE",
"90 40 LINE"
);
},
{
closed = 1;
nodes = (
"878 1446 OFFCURVE",
"800 1520 OFFCURVE",
"662 1520 CURVE SMOOTH",
"436 1520 OFFCURVE",
"310 1378 OFFCURVE",
"310 1106 CURVE",
"358 1110 LINE",
"358 1358 OFFCURVE",
"466 1480 OFFCURVE",
"662 1480 CURVE SMOOTH",
"772 1480 OFFCURVE",
"827 1424 OFFCURVE",
"834 1348 CURVE SMOOTH",
"839 1290 OFFCURVE",
"806 1280 OFFCURVE",
"806 1242 CURVE SMOOTH",
"806 1224 OFFCURVE",
"816 1214 OFFCURVE",
"832 1214 CURVE SMOOTH",
"864 1214 OFFCURVE",
"884 1268 OFFCURVE",
"882 1330 CURVE SMOOTH"
);
},
{
closed = 1;
nodes = (
"738 1040 LINE",
"1814 1040 LINE",
"1814 1080 LINE",
"738 1080 LINE"
);
},
{
closed = 1;
nodes = (
"1038 0 LINE",
"1086 0 LINE",
"1086 1090 LINE",
"1038 1086 LINE"
);
},
{
closed = 1;
nodes = (
"818 0 LINE",
"1366 0 LINE",
"1366 40 LINE",
"818 40 LINE"
);
},
{
closed = 1;
nodes = (
"1821 1450 OFFCURVE",
"1698 1540 OFFCURVE",
"1506 1540 CURVE SMOOTH",
"1206 1540 OFFCURVE",
"1038 1378 OFFCURVE",
"1038 1086 CURVE",
"1086 1090 LINE",
"1086 1358 OFFCURVE",
"1236 1500 OFFCURVE",
"1506 1500 CURVE SMOOTH",
"1670 1500 OFFCURVE",
"1773 1428 OFFCURVE",
"1778 1328 CURVE SMOOTH",
"1781 1270 OFFCURVE",
"1750 1260 OFFCURVE",
"1750 1222 CURVE SMOOTH",
"1750 1204 OFFCURVE",
"1760 1194 OFFCURVE",
"1776 1194 CURVE SMOOTH",
"1808 1194 OFFCURVE",
"1828 1248 OFFCURVE",
"1826 1310 CURVE SMOOTH"
);
},
{
closed = 1;
nodes = (
"1766 0 LINE",
"1814 0 LINE",
"1814 1080 LINE",
"1766 1080 LINE"
);
},
{
closed = 1;
nodes = (
"1546 0 LINE",
"2014 0 LINE",
"2014 40 LINE",
"1546 40 LINE"
);
}
);
width = 2068;
}
);
leftMetricsKey = f;
rightMetricsKey = i;
},
{
glyphname = f_f_l.liga;
lastChange = "2020-05-19 09:43:04 +0000";
layers = (
{
layerId = "CA54B7DC-FBBB-40FE-ACF3-AABDD76D6A7B";
paths = (
{
closed = 1;
nodes = (
"36 1060 LINE",
"764 1060 LINE",
"764 1100 LINE",
"36 1100 LINE"
);
},
{
closed = 1;
nodes = (
"336 0 LINE",
"384 0 LINE",
"384 1150 LINE",
"336 1146 LINE"
);
},
{
closed = 1;
nodes = (
"116 0 LINE",
"664 0 LINE",
"664 40 LINE",
"116 40 LINE"
);
},
{
closed = 1;
nodes = (
"904 1486 OFFCURVE",
"826 1560 OFFCURVE",
"688 1560 CURVE SMOOTH",
"462 1560 OFFCURVE",
"336 1418 OFFCURVE",
"336 1146 CURVE",
"384 1150 LINE",
"384 1398 OFFCURVE",
"492 1520 OFFCURVE",
"688 1520 CURVE SMOOTH",
"798 1520 OFFCURVE",
"854 1464 OFFCURVE",
"860 1388 CURVE SMOOTH",
"864 1330 OFFCURVE",
"832 1320 OFFCURVE",
"832 1282 CURVE SMOOTH",
"832 1264 OFFCURVE",
"842 1254 OFFCURVE",
"858 1254 CURVE SMOOTH",
"890 1254 OFFCURVE",
"910 1308 OFFCURVE",
"908 1370 CURVE SMOOTH"
);
},
{
closed = 1;
nodes = (
"764 1060 LINE",
"1492 1060 LINE",
"1492 1100 LINE",
"764 1100 LINE"
);
},
{
closed = 1;
nodes = (
"1064 0 LINE",
"1112 0 LINE",
"1112 1150 LINE",
"1064 1146 LINE"
);
},
{
closed = 1;
nodes = (
"844 0 LINE",
"1392 0 LINE",
"1392 40 LINE",
"844 40 LINE"
);
},
{
closed = 1;
nodes = (
"1632 1486 OFFCURVE",
"1554 1560 OFFCURVE",
"1416 1560 CURVE SMOOTH",
"1190 1560 OFFCURVE",
"1064 1418 OFFCURVE",
"1064 1146 CURVE",
"1112 1150 LINE",
"1112 1398 OFFCURVE",
"1220 1520 OFFCURVE",
"1416 1520 CURVE SMOOTH",
"1526 1520 OFFCURVE",
"1582 1464 OFFCURVE",
"1588 1388 CURVE SMOOTH",
"1592 1330 OFFCURVE",
"1560 1320 OFFCURVE",
"1560 1282 CURVE SMOOTH",
"1560 1264 OFFCURVE",
"1570 1254 OFFCURVE",
"1586 1254 CURVE SMOOTH",
"1618 1254 OFFCURVE",
"1638 1308 OFFCURVE",
"1636 1370 CURVE SMOOTH"
);
},
{
closed = 1;
nodes = (
"1792 0 LINE",
"1840 0 LINE",
"1840 1520 LINE",
"1792 1520 LINE"
);
},
{
closed = 1;
nodes = (
"1572 0 LINE",
"2040 0 LINE",
"2040 40 LINE",
"1572 40 LINE"
);
}
);
width = 2140;
},
{
layerId = "1E61A082-F045-49A7-AB52-DD1B03FD9B54";
paths = (
{
closed = 1;
nodes = (
"10 1040 LINE",
"738 1040 LINE",
"738 1080 LINE",
"10 1080 LINE"
);
},
{
closed = 1;
nodes = (
"310 0 LINE",
"358 0 LINE",
"358 1110 LINE",
"310 1106 LINE"
);
},
{
closed = 1;
nodes = (
"90 0 LINE",
"638 0 LINE",
"638 40 LINE",
"90 40 LINE"
);
},
{
closed = 1;
nodes = (
"878 1446 OFFCURVE",
"800 1520 OFFCURVE",
"662 1520 CURVE SMOOTH",
"436 1520 OFFCURVE",
"310 1378 OFFCURVE",
"310 1106 CURVE",
"358 1110 LINE",
"358 1358 OFFCURVE",
"466 1480 OFFCURVE",
"662 1480 CURVE SMOOTH",
"772 1480 OFFCURVE",
"827 1424 OFFCURVE",
"834 1348 CURVE SMOOTH",
"839 1290 OFFCURVE",
"806 1280 OFFCURVE",
"806 1242 CURVE SMOOTH",
"806 1224 OFFCURVE",
"816 1214 OFFCURVE",
"832 1214 CURVE SMOOTH",
"864 1214 OFFCURVE",
"884 1268 OFFCURVE",
"882 1330 CURVE SMOOTH"
);
},
{
closed = 1;
nodes = (
"738 1040 LINE",
"1466 1040 LINE",
"1466 1080 LINE",
"738 1080 LINE"
);
},
{
closed = 1;
nodes = (
"1038 0 LINE",
"1086 0 LINE",
"1086 1110 LINE",
"1038 1106 LINE"
);
},
{
closed = 1;
nodes = (
"818 0 LINE",
"1366 0 LINE",
"1366 40 LINE",
"818 40 LINE"
);
},
{
closed = 1;
nodes = (
"1606 1446 OFFCURVE",
"1528 1520 OFFCURVE",
"1390 1520 CURVE SMOOTH",
"1164 1520 OFFCURVE",
"1038 1378 OFFCURVE",
"1038 1106 CURVE",
"1086 1110 LINE",
"1086 1358 OFFCURVE",
"1194 1480 OFFCURVE",
"1390 1480 CURVE SMOOTH",
"1500 1480 OFFCURVE",
"1555 1424 OFFCURVE",
"1562 1348 CURVE SMOOTH",
"1567 1290 OFFCURVE",
"1534 1280 OFFCURVE",
"1534 1242 CURVE SMOOTH",
"1534 1224 OFFCURVE",
"1544 1214 OFFCURVE",
"1560 1214 CURVE SMOOTH",
"1592 1214 OFFCURVE",
"1612 1268 OFFCURVE",
"1610 1330 CURVE SMOOTH"
);
},
{
closed = 1;
nodes = (
"1766 0 LINE",
"1814 0 LINE",
"1814 1480 LINE",
"1766 1480 LINE"
);
},
{
closed = 1;
nodes = (
"1546 0 LINE",
"2014 0 LINE",
"2014 40 LINE",
"1546 40 LINE"
);
}
);
width = 2068;
}
);
leftMetricsKey = f;
rightMetricsKey = l;
},
{
glyphname = f_i.liga;
lastChange = "2020-05-19 09:43:04 +0000";
layers = (
{
layerId = "CA54B7DC-FBBB-40FE-ACF3-AABDD76D6A7B";
paths = (
{
closed = 1;
nodes = (
"36 1060 LINE",
"1112 1060 LINE",
"1112 1100 LINE",
"36 1100 LINE"
);
},
{
closed = 1;
nodes = (
"336 0 LINE",
"384 0 LINE",
"384 1130 LINE",
"336 1126 LINE"
);
},
{
closed = 1;
nodes = (
"116 0 LINE",
"664 0 LINE",
"664 40 LINE",
"116 40 LINE"
);
},
{
closed = 1;
nodes = (
"1120 1490 OFFCURVE",
"996 1580 OFFCURVE",
"804 1580 CURVE SMOOTH",
"504 1580 OFFCURVE",
"336 1418 OFFCURVE",
"336 1126 CURVE",
"384 1130 LINE",
"384 1398 OFFCURVE",
"534 1540 OFFCURVE",
"804 1540 CURVE SMOOTH",
"968 1540 OFFCURVE",
"1070 1468 OFFCURVE",
"1076 1368 CURVE SMOOTH",
"1080 1310 OFFCURVE",
"1048 1300 OFFCURVE",
"1048 1262 CURVE SMOOTH",
"1048 1244 OFFCURVE",
"1058 1234 OFFCURVE",
"1074 1234 CURVE SMOOTH",
"1106 1234 OFFCURVE",
"1126 1288 OFFCURVE",
"1124 1350 CURVE SMOOTH"
);
},
{
closed = 1;
nodes = (
"1064 0 LINE",
"1112 0 LINE",
"1112 1100 LINE",
"1064 1100 LINE"
);
},
{
closed = 1;
nodes = (
"844 0 LINE",
"1312 0 LINE",
"1312 40 LINE",
"844 40 LINE"
);
}
);
width = 1412;
},
{
layerId = "1E61A082-F045-49A7-AB52-DD1B03FD9B54";
paths = (
{
closed = 1;
nodes = (
"10 1040 LINE",
"1086 1040 LINE",
"1086 1080 LINE",
"10 1080 LINE"
);
},
{
closed = 1;
nodes = (
"310 0 LINE",
"358 0 LINE",
"358 1090 LINE",
"310 1086 LINE"
);
},
{
closed = 1;
nodes = (
"90 0 LINE",
"638 0 LINE",
"638 40 LINE",
"90 40 LINE"
);
},
{
closed = 1;
nodes = (
"1093 1450 OFFCURVE",
"970 1540 OFFCURVE",
"778 1540 CURVE SMOOTH",
"478 1540 OFFCURVE",
"310 1378 OFFCURVE",
"310 1086 CURVE",
"358 1090 LINE",
"358 1358 OFFCURVE",
"508 1500 OFFCURVE",
"778 1500 CURVE SMOOTH",
"942 1500 OFFCURVE",
"1045 1428 OFFCURVE",
"1050 1328 CURVE SMOOTH",
"1053 1270 OFFCURVE",
"1022 1260 OFFCURVE",
"1022 1222 CURVE SMOOTH",
"1022 1204 OFFCURVE",
"1032 1194 OFFCURVE",
"1048 1194 CURVE SMOOTH",
"1080 1194 OFFCURVE",
"1100 1248 OFFCURVE",
"1098 1310 CURVE SMOOTH"
);
},
{
closed = 1;
nodes = (
"1038 0 LINE",
"1086 0 LINE",
"1086 1080 LINE",
"1038 1080 LINE"
);
},
{
closed = 1;
nodes = (
"818 0 LINE",
"1286 0 LINE",
"1286 40 LINE",
"818 40 LINE"
);
}
);
width = 1340;
}
);
leftMetricsKey = f;
rightMetricsKey = idotless;
},
{
glyphname = f_l.liga;
lastChange = "2020-05-19 09:43:04 +0000";
layers = (
{
layerId = "CA54B7DC-FBBB-40FE-ACF3-AABDD76D6A7B";
paths = (
{
closed = 1;
nodes = (
"36 1060 LINE",
"764 1060 LINE",
"764 1100 LINE",
"36 1100 LINE"
);
},
{
closed = 1;
nodes = (
"336 0 LINE",
"384 0 LINE",
"384 1150 LINE",
"336 1146 LINE"
);
},
{
closed = 1;
nodes = (
"116 0 LINE",
"664 0 LINE",
"664 40 LINE",
"116 40 LINE"
);
},
{
closed = 1;
nodes = (
"904 1486 OFFCURVE",
"826 1560 OFFCURVE",
"688 1560 CURVE SMOOTH",
"462 1560 OFFCURVE",
"336 1418 OFFCURVE",
"336 1146 CURVE",
"384 1150 LINE",
"384 1398 OFFCURVE",
"492 1520 OFFCURVE",
"688 1520 CURVE SMOOTH",
"798 1520 OFFCURVE",
"854 1464 OFFCURVE",
"860 1388 CURVE SMOOTH",
"864 1330 OFFCURVE",
"832 1320 OFFCURVE",
"832 1282 CURVE SMOOTH",
"832 1264 OFFCURVE",
"842 1254 OFFCURVE",
"858 1254 CURVE SMOOTH",
"890 1254 OFFCURVE",
"910 1308 OFFCURVE",
"908 1370 CURVE SMOOTH"
);
},
{
closed = 1;
nodes = (
"1064 0 LINE",
"1112 0 LINE",
"1112 1520 LINE",
"1064 1520 LINE"
);
},
{
closed = 1;
nodes = (
"844 0 LINE",
"1312 0 LINE",
"1312 40 LINE",
"844 40 LINE"
);
}
);
width = 1412;
},
{
layerId = "1E61A082-F045-49A7-AB52-DD1B03FD9B54";
paths = (
{
closed = 1;
nodes = (
"10 1040 LINE",
"738 1040 LINE",
"738 1080 LINE",
"10 1080 LINE"
);
},
{
closed = 1;
nodes = (
"310 0 LINE",
"358 0 LINE",
"358 1110 LINE",
"310 1106 LINE"
);
},
{
closed = 1;
nodes = (
"90 0 LINE",
"638 0 LINE",
"638 40 LINE",
"90 40 LINE"
);
},
{
closed = 1;
nodes = (
"878 1446 OFFCURVE",
"800 1520 OFFCURVE",
"662 1520 CURVE SMOOTH",
"436 1520 OFFCURVE",
"310 1378 OFFCURVE",
"310 1106 CURVE",
"358 1110 LINE",
"358 1358 OFFCURVE",
"466 1480 OFFCURVE",
"662 1480 CURVE SMOOTH",
"772 1480 OFFCURVE",
"827 1424 OFFCURVE",
"834 1348 CURVE SMOOTH",
"839 1290 OFFCURVE",
"806 1280 OFFCURVE",
"806 1242 CURVE SMOOTH",
"806 1224 OFFCURVE",
"816 1214 OFFCURVE",
"832 1214 CURVE SMOOTH",
"864 1214 OFFCURVE",
"884 1268 OFFCURVE",
"882 1330 CURVE SMOOTH"
);
},
{
closed = 1;
nodes = (
"1038 0 LINE",
"1086 0 LINE",
"1086 1480 LINE",
"1038 1480 LINE"
);
},
{
closed = 1;
nodes = (
"818 0 LINE",
"1286 0 LINE",
"1286 40 LINE",
"818 40 LINE"
);
}
);
width = 1340;
}
);
leftMetricsKey = f;
rightMetricsKey = l;
},
{
glyphname = period;
lastChange = "2020-05-19 09:10:12 +0000";
layers = (
{
layerId = "CA54B7DC-FBBB-40FE-ACF3-AABDD76D6A7B";
paths = (
{
closed = 1;
nodes = (
"236 -20 OFFCURVE",
"260 6 OFFCURVE",
"260 42 CURVE SMOOTH",
"260 78 OFFCURVE",
"236 104 OFFCURVE",
"200 104 CURVE SMOOTH",
"164 104 OFFCURVE",
"140 78 OFFCURVE",
"140 42 CURVE SMOOTH",
"140 6 OFFCURVE",
"164 -20 OFFCURVE",
"200 -20 CURVE SMOOTH"
);
}
);
width = 400;
},
{
layerId = "1E61A082-F045-49A7-AB52-DD1B03FD9B54";
paths = (
{
closed = 1;
nodes = (
"236 -20 OFFCURVE",
"260 6 OFFCURVE",
"260 42 CURVE SMOOTH",
"260 78 OFFCURVE",
"236 104 OFFCURVE",
"200 104 CURVE SMOOTH",
"164 104 OFFCURVE",
"140 78 OFFCURVE",
"140 42 CURVE SMOOTH",
"140 6 OFFCURVE",
"164 -20 OFFCURVE",
"200 -20 CURVE SMOOTH"
);
}
);
width = 400;
}
);
unicode = 002E;
},
{
glyphname = comma;
lastChange = "2020-05-19 09:10:12 +0000";
layers = (
{
layerId = "CA54B7DC-FBBB-40FE-ACF3-AABDD76D6A7B";
paths = (
{
closed = 1;
nodes = (
"228 -20 OFFCURVE",
"247 -5 OFFCURVE",
"268 22 CURVE",
"268 76 OFFCURVE",
"236 104 OFFCURVE",
"200 104 CURVE SMOOTH",
"164 104 OFFCURVE",
"140 78 OFFCURVE",
"140 42 CURVE SMOOTH",
"140 6 OFFCURVE",
"164 -20 OFFCURVE",
"198 -20 CURVE SMOOTH"
);
},
{
closed = 1;
nodes = (
"218 -78 OFFCURVE",
"191 -126 OFFCURVE",
"142 -189 CURVE",
"173 -214 LINE",
"229 -150 OFFCURVE",
"268 -77 OFFCURVE",
"268 22 CURVE",
"226 -10 LINE"
);
}
);
width = 408;
},
{
associatedMasterId = "CA54B7DC-FBBB-40FE-ACF3-AABDD76D6A7B";
layerId = "CFF4CA7B-28A0-47ED-A7F9-6E1BB906CA58";
name = "May 19 20, 00:33";
paths = (
{
closed = 1;
nodes = (
"228 -20 OFFCURVE",
"247 -5 OFFCURVE",
"268 22 CURVE",
"268 76 OFFCURVE",
"236 104 OFFCURVE",
"200 104 CURVE SMOOTH",
"164 104 OFFCURVE",
"140 78 OFFCURVE",
"140 42 CURVE SMOOTH",
"140 6 OFFCURVE",
"164 -20 OFFCURVE",
"198 -20 CURVE SMOOTH"
);
},
{
closed = 1;
nodes = (
"217 -71 OFFCURVE",
"195 -114 OFFCURVE",
"152 -170 CURVE",
"183 -195 LINE",
"235 -133 OFFCURVE",
"268 -69 OFFCURVE",
"268 22 CURVE",
"224 -10 LINE"
);
}
);
width = 408;
},
{
associatedMasterId = "CA54B7DC-FBBB-40FE-ACF3-AABDD76D6A7B";
layerId = "0C54E9C1-875E-47F0-A9FB-FBBABE0F4789";
name = "May 19 20, 00:35";
paths = (
{
closed = 1;
nodes = (
"228 -20 OFFCURVE",
"247 -5 OFFCURVE",
"268 22 CURVE",
"268 75 OFFCURVE",
"243 104 OFFCURVE",
"200 104 CURVE SMOOTH",
"164 104 OFFCURVE",
"140 78 OFFCURVE",
"140 42 CURVE SMOOTH",
"140 6 OFFCURVE",
"164 -20 OFFCURVE",
"198 -20 CURVE SMOOTH"
);
},
{
closed = 1;
nodes = (
"222 -30 LINE SMOOTH",
"222 -104 OFFCURVE",
"195 -134 OFFCURVE",
"158 -156 CURVE",
"178 -193 LINE",
"231 -166 OFFCURVE",
"268 -119 OFFCURVE",
"268 -21 CURVE SMOOTH",
"268 22 LINE",
"222 -10 LINE"
);
}
);
width = 408;
},
{
layerId = "1E61A082-F045-49A7-AB52-DD1B03FD9B54";
paths = (
{
closed = 1;
nodes = (
"228 -20 OFFCURVE",
"247 -5 OFFCURVE",
"268 22 CURVE",
"268 76 OFFCURVE",
"236 104 OFFCURVE",
"200 104 CURVE SMOOTH",
"164 104 OFFCURVE",
"140 78 OFFCURVE",
"140 42 CURVE SMOOTH",
"140 6 OFFCURVE",
"164 -20 OFFCURVE",
"198 -20 CURVE SMOOTH"
);
},
{
closed = 1;
nodes = (
"218 -78 OFFCURVE",
"191 -126 OFFCURVE",
"142 -189 CURVE",
"173 -214 LINE",
"229 -150 OFFCURVE",
"268 -77 OFFCURVE",
"268 22 CURVE",
"226 -10 LINE"
);
}
);
width = 408;
},
{
associatedMasterId = "1E61A082-F045-49A7-AB52-DD1B03FD9B54";
layerId = "2A5E0AEF-4CA4-4AF8-973B-B841772E2CEE";
name = "May 19 20, 00:33";
paths = (
{
closed = 1;
nodes = (
"228 -20 OFFCURVE",
"247 -5 OFFCURVE",
"268 22 CURVE",
"268 76 OFFCURVE",
"236 104 OFFCURVE",
"200 104 CURVE SMOOTH",
"164 104 OFFCURVE",
"140 78 OFFCURVE",
"140 42 CURVE SMOOTH",
"140 6 OFFCURVE",
"164 -20 OFFCURVE",
"198 -20 CURVE SMOOTH"
);
},
{
closed = 1;
nodes = (
"217 -71 OFFCURVE",
"195 -114 OFFCURVE",
"152 -170 CURVE",
"183 -195 LINE",
"235 -133 OFFCURVE",
"268 -69 OFFCURVE",
"268 22 CURVE",
"224 -10 LINE"
);
}
);
width = 408;
},
{
associatedMasterId = "1E61A082-F045-49A7-AB52-DD1B03FD9B54";
layerId = "C6BA311A-799B-42F5-91FD-5D052CC8329E";
name = "May 19 20, 00:35";
paths = (
{
closed = 1;
nodes = (
"228 -20 OFFCURVE",
"247 -5 OFFCURVE",
"268 22 CURVE",
"268 75 OFFCURVE",
"243 104 OFFCURVE",
"200 104 CURVE SMOOTH",
"164 104 OFFCURVE",
"140 78 OFFCURVE",
"140 42 CURVE SMOOTH",
"140 6 OFFCURVE",
"164 -20 OFFCURVE",
"198 -20 CURVE SMOOTH"
);
},
{
closed = 1;
nodes = (
"222 -30 LINE SMOOTH",
"222 -104 OFFCURVE",
"195 -134 OFFCURVE",
"158 -156 CURVE",
"178 -193 LINE",
"231 -166 OFFCURVE",
"268 -119 OFFCURVE",
"268 -21 CURVE SMOOTH",
"268 22 LINE",
"222 -10 LINE"
);
}
);
width = 408;
}
);
unicode = 002C;
},
{
glyphname = exclam;
lastChange = "2020-05-19 09:10:12 +0000";
layers = (
{
layerId = "CA54B7DC-FBBB-40FE-ACF3-AABDD76D6A7B";
paths = (
{
closed = 1;
nodes = (
"236 -20 OFFCURVE",
"260 6 OFFCURVE",
"260 42 CURVE SMOOTH",
"260 78 OFFCURVE",
"236 104 OFFCURVE",
"200 104 CURVE SMOOTH",
"164 104 OFFCURVE",
"140 78 OFFCURVE",
"140 42 CURVE SMOOTH",
"140 6 OFFCURVE",
"164 -20 OFFCURVE",
"200 -20 CURVE SMOOTH"
);
},
{
closed = 1;
nodes = (
"219 415 LINE",
"266 410 LINE",
"378 1450 LINE",
"331 1455 LINE"
);
}
);
width = 518;
},
{
layerId = "1E61A082-F045-49A7-AB52-DD1B03FD9B54";
paths = (
{
closed = 1;
nodes = (
"236 -20 OFFCURVE",
"260 6 OFFCURVE",
"260 42 CURVE SMOOTH",
"260 78 OFFCURVE",
"236 104 OFFCURVE",
"200 104 CURVE SMOOTH",
"164 104 OFFCURVE",
"140 78 OFFCURVE",
"140 42 CURVE SMOOTH",
"140 6 OFFCURVE",
"164 -20 OFFCURVE",
"200 -20 CURVE SMOOTH"
);
},
{
closed = 1;
nodes = (
"219 415 LINE",
"266 410 LINE",
"378 1450 LINE",
"331 1455 LINE"
);
}
);
width = 518;
}
);
unicode = 0021;
},
